<svg width="22" height="24" viewBox="0 0 22 24" fill="none" xmlns="http://www.w3.org/2000/svg">
<path fill-rule="evenodd" clip-rule="evenodd" d="M13.0997 6.97331C11.8355 6.35144 12.8509 2.13566 12.7284 0.0203399C12.7284 0.0203399 11.1385 -0.258113 10.408 1.24553C10.408 1.24553 10.7607 2.50043 10.5101 4.3178C10.2623 6.09526 9.44824 7.02065 9.44824 7.02065L13.0997 6.97331Z" fill="url(#paint0_linear_10826_13043)"/>
<path style="mix-blend-mode:multiply" opacity="0.3" fill-rule="evenodd" clip-rule="evenodd" d="M12.8659 6.79318C12.8659 6.79318 12.0714 6.05064 11.805 3.52785C11.533 0.945665 10.8517 0.615234 10.8517 0.615234L10.5501 0.986505C10.5501 0.986505 11.4848 1.55176 11.5572 3.47031C11.6277 5.35265 12.3146 6.382 12.3146 6.382C12.3146 6.382 11.8263 6.52865 11.3028 6.10911C10.7794 5.68958 11.1748 4.51729 11.1172 3.38306C11.0597 2.24883 10.5222 1.84136 10.5222 1.84136L10.5984 2.82244C10.5984 2.82244 11.0624 3.05541 11.0522 3.97895C11.042 4.90248 10.8193 5.9012 11.1571 6.36529C11.1571 6.36529 10.6411 6.382 10.5519 5.71557C10.4984 5.25352 10.4838 4.78779 10.5083 4.3233C10.4367 4.84706 10.3024 5.36031 10.1083 5.85201C10.1083 5.85201 10.2206 6.00701 10.0498 6.52122C10.0498 6.51658 11.0894 6.19265 12.8659 6.79318Z" fill="url(#paint1_linear_10826_13043)"/>
<path style="mix-blend-mode:multiply" opacity="0.3" fill-rule="evenodd" clip-rule="evenodd" d="M12.4579 5.22871C11.9289 2.59919 12.5025 0.922898 12.2677 0.00585938H12.5851C12.5851 0.00585938 12.5183 0.876489 12.3243 2.19821C12.1321 3.49766 12.4691 4.30889 12.4691 4.30889L12.4579 5.22871Z" fill="url(#paint2_linear_10826_13043)"/>
<g style="mix-blend-mode:screen" opacity="0.5">
<path fill-rule="evenodd" clip-rule="evenodd" d="M12.2791 4.01821C12.2791 4.01821 11.8559 4.68743 11.7426 3.02042C11.6275 1.3265 10.8516 0.615518 10.8516 0.615518C10.8516 0.615518 11.2071 0.0372634 12.1798 0.0214844C12.1798 0.0214844 12.4313 0.10038 12.2726 1.64394C12.1176 3.15965 12.2791 4.01821 12.2791 4.01821Z" fill="#EF6673"/>
</g>
<g style="mix-blend-mode:screen" opacity="0.2">
<path fill-rule="evenodd" clip-rule="evenodd" d="M11.6678 4.52937C11.6678 4.52937 11.1647 4.78091 11.1192 3.4991C11.0719 2.19965 10.5735 1.89242 10.5735 1.89242L10.4277 1.20464L10.5503 0.990234C10.5503 0.990234 11.1582 1.34201 11.4135 2.43633C11.5689 3.12359 11.6542 3.82488 11.6678 4.52937Z" fill="#EF6673"/>
</g>
<g style="mix-blend-mode:screen" opacity="0.2">
<path fill-rule="evenodd" clip-rule="evenodd" d="M11.0478 6.1526C11.0478 6.1526 10.5772 6.05978 10.5197 5.43419C10.4621 4.8086 10.7313 3.94446 10.8408 3.87949C10.9504 3.81452 11.0627 4.00479 11.0265 4.50044C10.9903 4.99609 10.9197 5.85372 11.0478 6.1526Z" fill="#EF6673"/>
</g>
<path fill-rule="evenodd" clip-rule="evenodd" d="M0.669112 21.7262C0.788606 22.1029 0.963135 22.4597 1.18704 22.7853C1.19275 22.7943 1.19895 22.803 1.2056 22.8113C1.24644 22.8698 1.29006 22.9273 1.33462 22.9811C1.67526 23.397 2.66469 23.6578 4.05232 23.81C4.21196 23.8286 4.37811 23.8443 4.54982 23.8592C5.19398 23.9158 5.9096 23.952 6.67906 23.9752L7.00021 23.9836C7.98965 24.0049 9.05983 24.004 10.1671 23.9836C10.5384 23.978 10.9097 23.9734 11.281 23.9715C11.4944 23.9715 11.707 23.9715 11.9205 23.9659C12.8839 23.9585 13.8399 23.9474 14.7431 23.8963C14.8201 23.8963 14.8971 23.888 14.9733 23.8824C16.2996 23.7979 17.4988 23.6206 18.4242 23.2327C18.6925 23.1235 18.948 22.9853 19.1862 22.8206C19.5564 22.5468 19.854 22.1868 20.0532 21.7717C22.873 18.1815 21.1224 10.8137 17.9601 8.21476C17.4264 7.77574 16.9178 7.26802 16.0527 7.27359L15.338 7.36641L14.6252 6.97101C13.8945 6.76798 13.1351 6.68799 12.3781 6.73432L11.6188 6.89861L11.268 6.69163C9.89519 6.17834 8.35256 6.30086 6.91389 6.92089L6.59924 7.13529L6.10637 7.0499C5.7351 7.0629 5.40653 7.0499 4.99256 7.29865L4.77722 7.5539L4.52847 7.43881C3.95764 7.3692 3.66248 7.70891 3.33855 8.03191C0.147476 11.2211 -0.787198 17.9458 0.669112 21.7262Z" fill="url(#paint3_radial_10826_13043)"/>
<path style="mix-blend-mode:multiply" opacity="0.2" fill-rule="evenodd" clip-rule="evenodd" d="M14.7451 23.8988L14.9744 23.8848C15.8209 23.2305 17.0164 21.7212 17.4721 18.2851C18.2713 12.2984 16.0557 7.26953 16.0557 7.26953L15.341 7.36235C15.341 7.36235 17.3978 12.33 17.2233 17.8266C17.1101 21.389 15.6417 23.1506 14.7451 23.8988Z" fill="url(#paint4_linear_10826_13043)"/>
<path style="mix-blend-mode:multiply" opacity="0.2" fill-rule="evenodd" clip-rule="evenodd" d="M11.9217 23.9663C11.9217 22.7105 11.9431 19.6243 12.1761 17.4282C12.4879 14.4961 11.7881 6.97231 11.7881 6.97231L11.6247 6.89062C11.6247 6.89062 12.784 15.4763 11.2822 23.9691L11.9217 23.9663Z" fill="url(#paint5_linear_10826_13043)"/>
<path style="mix-blend-mode:multiply" opacity="0.2" fill-rule="evenodd" clip-rule="evenodd" d="M6.67819 23.9752L6.99841 23.9844C3.17525 19.1217 6.60023 7.13617 6.60023 7.13617L6.10644 7.05078C2.26935 16.1321 5.58758 22.2961 6.67819 23.9752Z" fill="url(#paint6_linear_10826_13043)"/>
<path style="mix-blend-mode:multiply" opacity="0.2" fill-rule="evenodd" clip-rule="evenodd" d="M1.93574 17.7812C2.13808 21.5023 3.43289 23.2018 4.05198 23.8144C4.21163 23.8329 4.3787 23.8487 4.54949 23.8645C3.58604 23.2361 2.13623 21.6768 2.16407 17.8545C2.20862 11.8047 4.77967 7.55362 4.77967 7.55362L4.52907 7.43945C4.52907 7.43945 1.65172 12.6113 1.93574 17.7812Z" fill="url(#paint7_linear_10826_13043)"/>
<path style="mix-blend-mode:multiply" opacity="0.5" fill-rule="evenodd" clip-rule="evenodd" d="M11.2822 23.9736C11.2822 23.9736 11.8206 20.4567 12.1603 17.584L11.9217 23.9671L11.2822 23.9736Z" fill="url(#paint8_linear_10826_13043)"/>
<path style="mix-blend-mode:multiply" opacity="0.5" fill-rule="evenodd" clip-rule="evenodd" d="M6.99872 23.9841C6.99872 23.9841 4.98457 21.6321 5.15257 16.8984C5.15257 16.8984 3.88654 20.2677 6.6785 23.9749L6.99872 23.9841Z" fill="url(#paint9_linear_10826_13043)"/>
<path style="mix-blend-mode:multiply" opacity="0.5" fill-rule="evenodd" clip-rule="evenodd" d="M4.54916 23.8614C4.54916 23.8614 1.98739 22.5025 2.16653 17.6992C2.16653 17.6992 1.55579 21.3609 4.05166 23.8113L4.54916 23.8614Z" fill="url(#paint10_linear_10826_13043)"/>
<path style="mix-blend-mode:multiply" opacity="0.5" fill-rule="evenodd" clip-rule="evenodd" d="M14.7451 23.8972C14.7451 23.8972 16.9978 22.5476 17.2233 17.8223C17.2233 17.8223 17.6976 21.3967 14.9744 23.8833L14.7451 23.8972Z" fill="url(#paint11_linear_10826_13043)"/>
<path style="mix-blend-mode:multiply" opacity="0.3" fill-rule="evenodd" clip-rule="evenodd" d="M0.669922 21.7305C0.789379 22.1061 0.963586 22.462 1.18692 22.7867C1.19263 22.7957 1.19883 22.8044 1.20548 22.8127C1.24632 22.8712 1.28994 22.9287 1.3345 22.9826C1.67514 23.3984 2.66457 23.6592 4.0522 23.8114C4.21184 23.83 4.37799 23.8458 4.5497 23.8606C5.19386 23.9173 5.90948 23.9535 6.67894 23.9767L7.00009 23.985C7.98953 24.0064 9.05971 24.0054 10.167 23.985C10.5383 23.9794 10.9096 23.9748 11.2808 23.9729C11.4943 23.9729 11.7069 23.9729 11.9204 23.9674C12.8838 23.96 13.8398 23.9488 14.7429 23.8978C14.82 23.8978 14.897 23.8894 14.9731 23.8838C16.2995 23.7994 17.4987 23.6221 18.4241 23.2341C17.2063 23.5998 15.3221 23.5376 15.3221 23.5376L15.3295 23.3232C15.3295 23.3232 13.1725 23.6072 11.9315 23.6537L11.3969 23.4662C11.3969 23.4662 10.853 23.804 9.37158 23.9024C8.47428 23.9555 7.57466 23.8496 6.71421 23.5896L6.52301 23.7325C6.52301 23.7325 4.61096 23.6137 3.83129 23.2295L3.75425 23.4736C3.75425 23.4736 2.82608 23.1404 1.88862 22.7765C0.992927 22.4285 0.690342 21.7732 0.669922 21.7305Z" fill="url(#paint12_linear_10826_13043)"/>
<g style="mix-blend-mode:screen" opacity="0.2">
<path fill-rule="evenodd" clip-rule="evenodd" d="M17.0091 13.9337C17.2773 17.1666 12.7914 16.5011 12.5251 15.9525C12.2587 15.404 11.7881 6.97148 11.7881 6.97148C11.7881 6.97148 12.6132 6.63269 13.805 6.78584C15.0116 6.93992 15.3411 7.35853 15.3411 7.35853C15.3411 7.35853 16.7891 11.2764 17.0091 13.9337Z" fill="#EF6600"/>
</g>
<g style="mix-blend-mode:screen" opacity="0.2">
<path fill-rule="evenodd" clip-rule="evenodd" d="M12.0382 15.5842C12.0382 15.5842 11.6855 16.4549 9.02346 16.6981C6.46169 16.932 5.18359 15.7225 5.18359 15.7225C5.18359 15.7225 5.4936 9.42764 6.91464 6.92156C7.61975 6.55927 8.39655 6.35818 9.18889 6.33282C9.98122 6.30746 10.7693 6.45846 11.4961 6.77491C11.4961 6.77491 12.3074 12.5834 12.0382 15.5842Z" fill="#EF6600"/>
</g>
<g style="mix-blend-mode:screen" opacity="0.2">
<path fill-rule="evenodd" clip-rule="evenodd" d="M6.1069 7.05107C6.1069 7.05107 4.39349 10.6264 4.25055 15.0826C4.25055 15.0826 3.26019 15.7063 2.27539 15.7444C2.27539 15.7444 2.27539 13.9057 3.37157 10.7573C4.529 7.43998 4.99309 7.29983 4.99309 7.29983C4.99309 7.29983 5.62425 6.96568 6.1069 7.05107Z" fill="#EF6600"/>
</g>
<g style="mix-blend-mode:screen" opacity="0.2">
<path fill-rule="evenodd" clip-rule="evenodd" d="M20.4849 15.7147C19.874 15.5663 19.312 15.2623 18.8535 14.8322C18.395 14.4021 18.0556 13.8607 17.8684 13.2606C17.188 11.1388 16.0557 7.26826 16.0557 7.26826C16.0557 7.26826 17.0878 7.21628 17.7449 8.02101C19.1604 9.75299 20.4849 15.7147 20.4849 15.7147Z" fill="#EF6600"/>
</g>
<g style="mix-blend-mode:screen" opacity="0.2">
<path fill-rule="evenodd" clip-rule="evenodd" d="M4.52844 7.43947C4.52844 7.43947 2.61825 11.1577 2.1421 14.4008C1.68636 17.5028 0.390625 18.2008 0.390625 18.2008C0.390625 18.2008 0.810161 14.5252 1.75505 11.968C2.74263 9.2949 3.16123 8.03722 3.52322 7.78011C3.8109 7.55759 4.16475 7.43769 4.52844 7.43947Z" fill="#EF6600"/>
</g>
<g style="mix-blend-mode:screen" opacity="0.2">
<path fill-rule="evenodd" clip-rule="evenodd" d="M15.3232 23.5406C15.3232 23.5406 17.9853 20.4497 19.2522 19.0992C20.56 17.707 20.521 20.9797 19.9112 22.0248C19.3125 23.0496 17.2585 23.7373 15.3232 23.5406Z" fill="#EF6600"/>
</g>
<g style="mix-blend-mode:screen" opacity="0.3">
<path fill-rule="evenodd" clip-rule="evenodd" d="M11.3972 23.4649C11.3972 23.4649 8.42707 21.5157 6.96333 21.2633C5.5228 21.0117 5.94976 22.0699 5.94976 22.0699C5.94976 22.0699 6.24214 23.3275 7.34203 23.7508C8.44192 24.174 11.3972 23.4649 11.3972 23.4649Z" fill="#EF6600"/>
</g>
<g style="mix-blend-mode:screen" opacity="0.2">
<path fill-rule="evenodd" clip-rule="evenodd" d="M3.64724 23.4326C3.64724 23.4326 2.08976 21.0741 1.32679 20.7205C0.563833 20.3668 0.533203 20.8773 0.533203 20.8773C0.533203 20.8773 0.743899 22.1174 1.64702 22.6641C2.55013 23.2108 3.64724 23.4326 3.64724 23.4326Z" fill="#EF6600"/>
</g>
<g style="mix-blend-mode:screen" opacity="0.2">
<path fill-rule="evenodd" clip-rule="evenodd" d="M6.3854 23.7223C6.3854 23.7223 5.59366 22.2029 4.79543 21.6581C3.9972 21.1132 3.00684 21.4075 3.00684 21.4075C3.00684 21.4075 3.39203 23.1292 4.41674 23.43C5.05696 23.6149 5.71907 23.7132 6.3854 23.7223Z" fill="#EF6600"/>
</g>
<g style="mix-blend-mode:screen" opacity="0.3">
<path fill-rule="evenodd" clip-rule="evenodd" d="M12.0566 23.6519C12.0566 23.6519 12.9431 20.2993 14.6203 19.8231C16.3457 19.3331 16.4339 21.6275 15.334 23.2295C15.334 23.2295 13.4944 23.7948 12.0566 23.6519Z" fill="#EF6600"/>
</g>
<path style="mix-blend-mode:multiply" opacity="0.3" fill-rule="evenodd" clip-rule="evenodd" d="M6.18782 8.55814C5.64948 8.47182 4.2832 14.1847 4.2832 14.1847C4.2832 14.1847 4.74729 9.80561 6.10985 7.05078L6.59993 7.13617L6.18782 8.55814Z" fill="url(#paint13_linear_10826_13043)"/>
<path style="mix-blend-mode:multiply" opacity="0.3" fill-rule="evenodd" clip-rule="evenodd" d="M15.983 9.22779C16.0109 7.87265 16.8388 10.505 17.1386 11.5705C17.3181 12.2071 17.4518 12.8557 17.5386 13.5113C17.5386 13.5113 17.0198 9.04494 16.0536 7.26562L15.3389 7.35844L15.983 9.22779Z" fill="url(#paint14_linear_10826_13043)"/>
<path style="mix-blend-mode:multiply" opacity="0.3" fill-rule="evenodd" clip-rule="evenodd" d="M3.28949 11.041C3.28949 11.041 2.6342 11.8829 2.15618 14.3388C1.88073 15.8463 1.84002 17.3874 2.03552 18.9073L2.2787 19.7659C2.2787 19.7659 1.63548 15.8323 3.28949 11.041Z" fill="url(#paint15_linear_10826_13043)"/>
<path style="mix-blend-mode:multiply" opacity="0.3" fill-rule="evenodd" clip-rule="evenodd" d="M11.624 6.89062C11.624 6.89062 12.3211 14.3643 12.2533 15.8503C12.2533 15.8503 12.1716 10.2116 11.7892 6.97231L11.624 6.89062Z" fill="url(#paint16_linear_10826_13043)"/>
<g style="mix-blend-mode:screen" opacity="0.5">
<path fill-rule="evenodd" clip-rule="evenodd" d="M10.6297 6.49571C10.6297 6.49571 8.12917 6.27666 7.09518 7.33107C6.08626 8.36506 5.21191 15.2391 5.21191 15.2391C5.21191 15.2391 5.59525 10.227 6.60418 7.13151L6.91419 6.92174C6.91419 6.92174 8.25169 6.08639 10.6297 6.49571Z" fill="#EF6600"/>
</g>
<g style="mix-blend-mode:screen" opacity="0.5">
<path fill-rule="evenodd" clip-rule="evenodd" d="M13.5684 6.76172C13.5684 6.76172 14.5643 7.25365 15.1268 7.81242C15.6892 8.37118 17.1019 14.7125 17.1019 14.7125C17.1019 14.7125 16.5552 9.69476 15.3384 7.35854L14.6283 6.96313L13.5684 6.76172Z" fill="#EF6600"/>
</g>
<g style="mix-blend-mode:screen" opacity="0.5">
<path fill-rule="evenodd" clip-rule="evenodd" d="M4.99261 7.29953C5.427 7.55478 4.44406 9.31832 4.23429 12.4806C4.12235 14.4166 4.21569 16.3589 4.51274 18.2752C4.51274 18.2752 3.4407 13.1888 6.10642 7.05078C6.10642 7.05078 5.34439 7.07213 4.99261 7.29953Z" fill="#EF6600"/>
</g>
<path style="mix-blend-mode:multiply" opacity="0.3" fill-rule="evenodd" clip-rule="evenodd" d="M21.4091 15.832C21.3349 17.5095 20.9126 19.1531 20.1691 20.6586C18.8102 23.3503 16.2559 23.7624 16.2559 23.7624C16.2559 23.7624 18.774 23.5183 19.9955 21.8763C21.9363 19.2663 21.4091 15.832 21.4091 15.832Z" fill="url(#paint17_linear_10826_13043)"/>
<path style="mix-blend-mode:multiply" opacity="0.5" fill-rule="evenodd" clip-rule="evenodd" d="M2.85156 14.6984L3.22098 14.9935L5.1488 16.1111L6.49187 16.6615L6.38699 17.2453L7.53886 17.9488H7.77554L8.31296 17.3483L11.6247 17.2286L13.21 17.0699L13.4913 17.4922L14.6951 17.2806L14.529 16.7283L16.0586 15.7611L17.8221 14.3262L16.2563 17.8235L15.4961 18.8817L12.2447 21.5455L11.3973 21.7033L10.9592 21.5455H8.726L9.0917 21.2262V20.5886L8.32131 20.157L7.92034 20.2414L7.45903 21.0267L7.53886 21.2262L6.63296 20.6053L4.86849 19.0209L4.16865 17.8235L3.34814 16.4136L2.85156 14.6984Z" fill="url(#paint18_linear_10826_13043)"/>
<path style="mix-blend-mode:screen" d="M6.25835 9.90641C6.07272 11.2226 6.47183 12.3197 7.15961 12.3735C7.84739 12.4273 8.59179 11.411 8.8062 10.0744C9.02432 8.71556 8.61592 7.56833 7.89658 7.52842C7.17725 7.48851 6.45048 8.56705 6.25835 9.90641Z" fill="url(#paint19_radial_10826_13043)"/>
<path style="mix-blend-mode:multiply" opacity="0.5" fill-rule="evenodd" clip-rule="evenodd" d="M12.2775 14.1067L11.9424 13.598L12.4055 12.3756L13.8619 11.207H15.0044L16.9035 12.021L17.4483 12.9269V13.9442L16.7392 14.0844L14.5348 13.7836L13.3161 13.9442L12.2775 14.1067Z" fill="url(#paint20_linear_10826_13043)"/>
<path style="mix-blend-mode:multiply" opacity="0.5" fill-rule="evenodd" clip-rule="evenodd" d="M9.38842 13.7725L8.97724 13.9442L7.1478 13.7725L6.1101 13.6853L5.21255 13.5145L4.77816 13.7837L3.87598 13.7289L4.18692 13.0597L4.98793 11.9106L6.2122 11.207H7.64066L8.39156 11.3713L8.7257 11.9106L9.18329 12.8471L9.38842 13.7725Z" fill="url(#paint21_linear_10826_13043)"/>
<path style="mix-blend-mode:screen" opacity="0.5" d="M17.6162 14.2684C17.825 15.579 18.4617 16.5276 19.0437 16.4032C19.6257 16.2788 19.9515 15.1038 19.7519 13.7663C19.5496 12.4167 18.8961 11.4356 18.2993 11.5878C17.7025 11.7401 17.4036 12.943 17.6162 14.2684Z" fill="url(#paint22_radial_10826_13043)"/>
<path style="mix-blend-mode:screen" opacity="0.5" d="M0.489432 17.7812C0.340923 19.3071 0.521918 20.5583 0.89226 20.6038C1.2626 20.6492 1.69699 19.464 1.86128 17.925C2.02835 16.3536 1.85107 15.0282 1.46309 14.9948C1.07511 14.9614 0.640725 16.2218 0.489432 17.7812Z" fill="url(#paint23_radial_10826_13043)"/>
<path style="mix-blend-mode:screen" d="M8.72559 7.96718C8.72559 8.37651 8.9038 8.68652 9.12192 8.66331C9.34004 8.64011 9.51918 8.29204 9.52011 7.87622C9.52104 7.4604 9.3419 7.14853 9.12192 7.17545C8.90194 7.20236 8.72466 7.55693 8.72559 7.96718Z" fill="url(#paint24_radial_10826_13043)"/>
<path fill-rule="evenodd" clip-rule="evenodd" d="M17.6166 14.5781C17.6166 14.5781 15.6062 21.4652 9.93963 21.4736C9.68708 21.4742 9.43474 21.459 9.1841 21.4281L9.43378 20.5147L8.03316 19.8947L7.38343 20.8999C4.14502 19.3285 3.01172 14.9939 3.01172 14.9939C3.01172 14.9939 3.96032 16.1579 6.2557 16.8902L6.11833 17.5028L7.93199 18.1878L8.31625 17.3524C8.95254 17.4388 9.59363 17.485 10.2357 17.4907C11.2542 17.5119 12.2715 17.4115 13.2662 17.1919L13.5447 17.9196L15.053 17.242L14.7197 16.7398C16.8815 15.8655 17.6166 14.5781 17.6166 14.5781Z" fill="url(#paint25_linear_10826_13043)"/>
<path fill-rule="evenodd" clip-rule="evenodd" d="M4.21912 13.6205C3.73646 13.7356 4.76767 11.5553 6.58782 11.3817C8.40798 11.2081 9.2554 13.2158 9.07627 13.6762C8.89713 14.1365 7.83808 12.7563 4.21912 13.6205Z" fill="url(#paint26_linear_10826_13043)"/>
<path fill-rule="evenodd" clip-rule="evenodd" d="M17.1258 13.6205C17.6084 13.7356 16.5781 11.5553 14.7571 11.3817C12.936 11.2081 12.0895 13.2158 12.2686 13.6762C12.4478 14.1365 13.5068 12.7563 17.1258 13.6205Z" fill="url(#paint27_linear_10826_13043)"/>
<path fill-rule="evenodd" clip-rule="evenodd" d="M9.34021 15.9798C9.25575 16.5042 11.5047 16.5228 11.8463 16.106C12.1879 15.6893 11.23 14.3137 10.5617 14.4112C9.8934 14.5086 9.41632 15.5157 9.34021 15.9798Z" fill="url(#paint28_linear_10826_13043)"/>
<path fill-rule="evenodd" clip-rule="evenodd" d="M12.405 13.7714C12.0486 13.4809 12.8932 11.968 14.511 12.0209C16.1288 12.0738 16.4398 13.4763 16.4398 13.4763C16.4398 13.4763 14.8526 13.2377 14.0581 13.377C13.2636 13.5162 12.405 13.7714 12.405 13.7714Z" fill="url(#paint29_linear_10826_13043)"/>
<path fill-rule="evenodd" clip-rule="evenodd" d="M8.91911 13.7721C8.63323 13.8779 6.92539 13.2226 4.98828 13.4621C4.98828 13.4621 5.5127 11.9102 6.99871 11.9102C8.48472 11.9102 9.5874 13.5224 8.91911 13.7721Z" fill="url(#paint30_linear_10826_13043)"/>
<path fill-rule="evenodd" clip-rule="evenodd" d="M9.48868 16.2099C9.15824 16.041 9.67431 15.1824 10.6294 15.124C11.5845 15.0655 11.94 15.9203 11.8481 16.1078C11.7562 16.2953 10.2349 16.5933 9.48868 16.2099Z" fill="url(#paint31_linear_10826_13043)"/>
<path fill-rule="evenodd" clip-rule="evenodd" d="M3.87891 15.7441C3.87891 15.7441 5.53849 19.5209 7.81066 20.2412L8.03528 19.8949L8.64602 19.8021L10.1525 20.2439L10.0596 20.864C11.4543 20.7115 12.7755 20.1605 13.8652 19.2768C14.9595 18.3867 15.7959 17.2203 16.2877 15.8982L14.7237 16.7336L15.0569 17.2357L13.5487 17.9133L12.6205 18.0237L12.3327 17.3582C12.3327 17.3582 10.1692 17.5197 8.87343 17.4111L8.49287 18.0237L7.93597 18.1862L6.11488 17.503L6.38684 16.7772C5.53197 16.4806 4.69464 16.1357 3.87891 15.7441Z" fill="url(#paint32_linear_10826_13043)"/>
<path style="mix-blend-mode:multiply" opacity="0.5" fill-rule="evenodd" clip-rule="evenodd" d="M9.18359 21.4274L10.0561 20.8603L10.1498 20.2402L9.43327 20.514L9.18359 21.4274Z" fill="url(#paint33_linear_10826_13043)"/>
<g style="mix-blend-mode:screen" opacity="0.5">
<path fill-rule="evenodd" clip-rule="evenodd" d="M8.03223 19.8944L9.43285 20.5145L10.1494 20.2406L8.64297 19.7988L8.03223 19.8944Z" fill="#EF6600"/>
</g>
<path style="mix-blend-mode:multiply" opacity="0.5" d="M15.9573 12.626L16.4919 12.2548C16.4919 12.2548 15.716 11.2811 14.4045 11.3915C13.093 11.502 12.4033 12.897 12.4033 12.897L12.5156 13.0353C12.5156 13.0353 12.9621 12.0877 14.3237 12.0524C15.496 12.0218 15.9573 12.626 15.9573 12.626Z" fill="url(#paint34_linear_10826_13043)"/>
<path style="mix-blend-mode:multiply" opacity="0.5" d="M5.11035 12.0216L5.76008 12.3576C5.76008 12.3576 6.10164 11.848 7.20803 11.9223C8.31442 11.9965 8.90381 12.9275 8.90381 12.9275L8.63557 12.3706C8.63557 12.3706 7.97378 11.4693 6.99641 11.396C6.01904 11.3227 5.11035 12.0216 5.11035 12.0216Z" fill="url(#paint35_linear_10826_13043)"/>
<defs>
<linearGradient id="paint0_linear_10826_13043" x1="10.9575" y1="7.06472" x2="10.8873" y2="0.0396234" gradientUnits="userSpaceOnUse">
<stop stop-color="#B85229"/>
<stop offset="1" stop-color="#841121"/>
</linearGradient>
<linearGradient id="paint1_linear_10826_13043" x1="13.7328" y1="3.75099" x2="10.0758" y2="2.73515" gradientUnits="userSpaceOnUse">
<stop offset="0.01" stop-color="#A4006D"/>
<stop offset="0.05" stop-color="#A8076E"/>
<stop offset="0.36" stop-color="#C33875"/>
<stop offset="0.63" stop-color="#D75B7B"/>
<stop offset="0.86" stop-color="#E3717E"/>
<stop offset="1" stop-color="#E7797F"/>
</linearGradient>
<linearGradient id="paint2_linear_10826_13043" x1="13.1903" y1="2.65785" x2="11.6582" y2="2.23227" gradientUnits="userSpaceOnUse">
<stop offset="0.01" stop-color="#A4006D"/>
<stop offset="0.05" stop-color="#A8076E"/>
<stop offset="0.36" stop-color="#C33875"/>
<stop offset="0.63" stop-color="#D75B7B"/>
<stop offset="0.86" stop-color="#E3717E"/>
<stop offset="1" stop-color="#E7797F"/>
</linearGradient>
<radialGradient id="paint3_radial_10826_13043" cx="0" cy="0" r="1" gradientUnits="userSpaceOnUse" gradientTransform="translate(10.6517 10.0712) rotate(180) scale(17.085 13.8388)">
<stop stop-color="#FFB820"/>
<stop offset="0.65" stop-color="#FF9009"/>
<stop offset="0.99" stop-color="#FF522B"/>
</radialGradient>
<linearGradient id="paint4_linear_10826_13043" x1="16.1734" y1="23.8553" x2="16.0073" y2="7.24469" gradientUnits="userSpaceOnUse">
<stop stop-color="#E7797F"/>
<stop offset="0.14" stop-color="#E3717E"/>
<stop offset="0.37" stop-color="#D75B7B"/>
<stop offset="0.64" stop-color="#C33875"/>
<stop offset="0.95" stop-color="#A8076E"/>
<stop offset="0.99" stop-color="#A4006D"/>
</linearGradient>
<linearGradient id="paint5_linear_10826_13043" x1="11.7492" y1="23.9309" x2="11.5785" y2="6.85249" gradientUnits="userSpaceOnUse">
<stop stop-color="#E7797F"/>
<stop offset="0.14" stop-color="#E3717E"/>
<stop offset="0.37" stop-color="#D75B7B"/>
<stop offset="0.64" stop-color="#C33875"/>
<stop offset="0.95" stop-color="#A8076E"/>
<stop offset="0.99" stop-color="#A4006D"/>
</linearGradient>
<linearGradient id="paint6_linear_10826_13043" x1="5.62996" y1="23.9472" x2="5.46053" y2="7.00329" gradientUnits="userSpaceOnUse">
<stop stop-color="#E7797F"/>
<stop offset="0.14" stop-color="#E3717E"/>
<stop offset="0.37" stop-color="#D75B7B"/>
<stop offset="0.64" stop-color="#C33875"/>
<stop offset="0.95" stop-color="#A8076E"/>
<stop offset="0.99" stop-color="#A4006D"/>
</linearGradient>
<linearGradient id="paint7_linear_10826_13043" x1="3.41988" y1="23.8131" x2="3.25568" y2="7.39363" gradientUnits="userSpaceOnUse">
<stop stop-color="#E7797F"/>
<stop offset="0.14" stop-color="#E3717E"/>
<stop offset="0.37" stop-color="#D75B7B"/>
<stop offset="0.64" stop-color="#C33875"/>
<stop offset="0.95" stop-color="#A8076E"/>
<stop offset="0.99" stop-color="#A4006D"/>
</linearGradient>
<linearGradient id="paint8_linear_10826_13043" x1="11.7213" y1="23.9736" x2="11.7213" y2="17.584" gradientUnits="userSpaceOnUse">
<stop offset="0.01" stop-color="#A4006D"/>
<stop offset="0.05" stop-color="#A8076E"/>
<stop offset="0.36" stop-color="#C33875"/>
<stop offset="0.63" stop-color="#D75B7B"/>
<stop offset="0.86" stop-color="#E3717E"/>
<stop offset="1" stop-color="#E7797F"/>
</linearGradient>
<linearGradient id="paint9_linear_10826_13043" x1="5.93224" y1="23.9841" x2="5.93224" y2="16.8984" gradientUnits="userSpaceOnUse">
<stop offset="0.01" stop-color="#A4006D"/>
<stop offset="0.05" stop-color="#A8076E"/>
<stop offset="0.36" stop-color="#C33875"/>
<stop offset="0.63" stop-color="#D75B7B"/>
<stop offset="0.86" stop-color="#E3717E"/>
<stop offset="1" stop-color="#E7797F"/>
</linearGradient>
<linearGradient id="paint10_linear_10826_13043" x1="3.32489" y1="23.8614" x2="3.32489" y2="17.6992" gradientUnits="userSpaceOnUse">
<stop offset="0.01" stop-color="#A4006D"/>
<stop offset="0.05" stop-color="#A8076E"/>
<stop offset="0.36" stop-color="#C33875"/>
<stop offset="0.63" stop-color="#D75B7B"/>
<stop offset="0.86" stop-color="#E3717E"/>
<stop offset="1" stop-color="#E7797F"/>
</linearGradient>
<linearGradient id="paint11_linear_10826_13043" x1="15.9991" y1="23.8972" x2="15.9991" y2="17.8223" gradientUnits="userSpaceOnUse">
<stop offset="0.01" stop-color="#A4006D"/>
<stop offset="0.05" stop-color="#A8076E"/>
<stop offset="0.36" stop-color="#C33875"/>
<stop offset="0.63" stop-color="#D75B7B"/>
<stop offset="0.86" stop-color="#E3717E"/>
<stop offset="1" stop-color="#E7797F"/>
</linearGradient>
<linearGradient id="paint12_linear_10826_13043" x1="9.54701" y1="24.0008" x2="9.54701" y2="21.7305" gradientUnits="userSpaceOnUse">
<stop offset="0.01" stop-color="#A4006D"/>
<stop offset="0.05" stop-color="#A8076E"/>
<stop offset="0.36" stop-color="#C33875"/>
<stop offset="0.63" stop-color="#D75B7B"/>
<stop offset="0.86" stop-color="#E3717E"/>
<stop offset="1" stop-color="#E7797F"/>
</linearGradient>
<linearGradient id="paint13_linear_10826_13043" x1="6.59901" y1="10.6178" x2="4.28227" y2="10.6178" gradientUnits="userSpaceOnUse">
<stop offset="0.01" stop-color="#A4006D"/>
<stop offset="0.05" stop-color="#A8076E"/>
<stop offset="0.36" stop-color="#C33875"/>
<stop offset="0.63" stop-color="#D75B7B"/>
<stop offset="0.86" stop-color="#E3717E"/>
<stop offset="1" stop-color="#E7797F"/>
</linearGradient>
<linearGradient id="paint14_linear_10826_13043" x1="17.5386" y1="10.3917" x2="15.3407" y2="10.3917" gradientUnits="userSpaceOnUse">
<stop offset="0.01" stop-color="#A4006D"/>
<stop offset="0.05" stop-color="#A8076E"/>
<stop offset="0.36" stop-color="#C33875"/>
<stop offset="0.63" stop-color="#D75B7B"/>
<stop offset="0.86" stop-color="#E3717E"/>
<stop offset="1" stop-color="#E7797F"/>
</linearGradient>
<linearGradient id="paint15_linear_10826_13043" x1="3.28949" y1="15.4034" x2="1.91393" y2="15.4034" gradientUnits="userSpaceOnUse">
<stop offset="0.01" stop-color="#A4006D"/>
<stop offset="0.05" stop-color="#A8076E"/>
<stop offset="0.36" stop-color="#C33875"/>
<stop offset="0.63" stop-color="#D75B7B"/>
<stop offset="0.86" stop-color="#E3717E"/>
<stop offset="1" stop-color="#E7797F"/>
</linearGradient>
<linearGradient id="paint16_linear_10826_13043" x1="12.258" y1="11.3709" x2="11.624" y2="11.3709" gradientUnits="userSpaceOnUse">
<stop offset="0.01" stop-color="#A4006D"/>
<stop offset="0.05" stop-color="#A8076E"/>
<stop offset="0.36" stop-color="#C33875"/>
<stop offset="0.63" stop-color="#D75B7B"/>
<stop offset="0.86" stop-color="#E3717E"/>
<stop offset="1" stop-color="#E7797F"/>
</linearGradient>
<linearGradient id="paint17_linear_10826_13043" x1="21.4741" y1="19.7991" x2="16.2549" y2="19.7991" gradientUnits="userSpaceOnUse">
<stop offset="0.01" stop-color="#A4006D"/>
<stop offset="0.05" stop-color="#A8076E"/>
<stop offset="0.36" stop-color="#C33875"/>
<stop offset="0.63" stop-color="#D75B7B"/>
<stop offset="0.86" stop-color="#E3717E"/>
<stop offset="1" stop-color="#E7797F"/>
</linearGradient>
<linearGradient id="paint18_linear_10826_13043" x1="2.85156" y1="18.0147" x2="17.8221" y2="18.0147" gradientUnits="userSpaceOnUse">
<stop offset="0.01" stop-color="#A4006D"/>
<stop offset="0.05" stop-color="#A8076E"/>
<stop offset="0.36" stop-color="#C33875"/>
<stop offset="0.63" stop-color="#D75B7B"/>
<stop offset="0.86" stop-color="#E3717E"/>
<stop offset="1" stop-color="#E7797F"/>
</linearGradient>
<radialGradient id="paint19_radial_10826_13043" cx="0" cy="0" r="1" gradientTransform="matrix(-1.28821 -0.204477 -0.388507 2.37194 7.56251 9.93327)" gradientUnits="userSpaceOnUse">
<stop offset="0.01" stop-color="#EFA461"/>
<stop offset="0.38" stop-color="#EDA360"/>
<stop offset="0.51" stop-color="#E69E5D"/>
<stop offset="0.6" stop-color="#DB9659"/>
<stop offset="0.68" stop-color="#CA8A52"/>
<stop offset="0.75" stop-color="#B47B49"/>
<stop offset="0.8" stop-color="#98693E"/>
<stop offset="0.86" stop-color="#785231"/>
<stop offset="0.91" stop-color="#523821"/>
<stop offset="0.95" stop-color="#291C11"/>
<stop offset="0.99"/>
</radialGradient>
<linearGradient id="paint20_linear_10826_13043" x1="11.9424" y1="12.6568" x2="17.4483" y2="12.6568" gradientUnits="userSpaceOnUse">
<stop offset="0.01" stop-color="#A4006D"/>
<stop offset="0.05" stop-color="#A8076E"/>
<stop offset="0.36" stop-color="#C33875"/>
<stop offset="0.63" stop-color="#D75B7B"/>
<stop offset="0.86" stop-color="#E3717E"/>
<stop offset="1" stop-color="#E7797F"/>
</linearGradient>
<linearGradient id="paint21_linear_10826_13043" x1="3.87598" y1="12.5761" x2="9.38842" y2="12.5761" gradientUnits="userSpaceOnUse">
<stop offset="0.01" stop-color="#A4006D"/>
<stop offset="0.05" stop-color="#A8076E"/>
<stop offset="0.36" stop-color="#C33875"/>
<stop offset="0.63" stop-color="#D75B7B"/>
<stop offset="0.86" stop-color="#E3717E"/>
<stop offset="1" stop-color="#E7797F"/>
</linearGradient>
<radialGradient id="paint22_radial_10826_13043" cx="0" cy="0" r="1" gradientTransform="matrix(-1.02001 0.199567 0.487832 2.5722 18.72 14.0092)" gradientUnits="userSpaceOnUse">
<stop offset="0.01" stop-color="#EFA461"/>
<stop offset="0.38" stop-color="#EDA360"/>
<stop offset="0.51" stop-color="#E69E5D"/>
<stop offset="0.6" stop-color="#DB9659"/>
<stop offset="0.68" stop-color="#CA8A52"/>
<stop offset="0.75" stop-color="#B47B49"/>
<stop offset="0.8" stop-color="#98693E"/>
<stop offset="0.86" stop-color="#785231"/>
<stop offset="0.91" stop-color="#523821"/>
<stop offset="0.95" stop-color="#291C11"/>
<stop offset="0.99"/>
</radialGradient>
<radialGradient id="paint23_radial_10826_13043" cx="0" cy="0" r="1" gradientTransform="matrix(-0.684957 -0.108151 -0.414579 2.79391 1.12333 17.8315)" gradientUnits="userSpaceOnUse">
<stop offset="0.01" stop-color="#EFA461"/>
<stop offset="0.38" stop-color="#EDA360"/>
<stop offset="0.51" stop-color="#E69E5D"/>
<stop offset="0.6" stop-color="#DB9659"/>
<stop offset="0.68" stop-color="#CA8A52"/>
<stop offset="0.75" stop-color="#B47B49"/>
<stop offset="0.8" stop-color="#98693E"/>
<stop offset="0.86" stop-color="#785231"/>
<stop offset="0.91" stop-color="#523821"/>
<stop offset="0.95" stop-color="#291C11"/>
<stop offset="0.99"/>
</radialGradient>
<radialGradient id="paint24_radial_10826_13043" cx="0" cy="0" r="1" gradientUnits="userSpaceOnUse" gradientTransform="translate(9.12186 7.93698) rotate(180) scale(0.397046 0.743674)">
<stop offset="0.01" stop-color="#EFD19C"/>
<stop offset="0.15" stop-color="#EBCE9A"/>
<stop offset="0.28" stop-color="#E0C492"/>
<stop offset="0.4" stop-color="#CEB486"/>
<stop offset="0.52" stop-color="#B49D76"/>
<stop offset="0.64" stop-color="#938060"/>
<stop offset="0.76" stop-color="#6A5C45"/>
<stop offset="0.87" stop-color="#393225"/>
<stop offset="0.98" stop-color="#020201"/>
<stop offset="0.99"/>
</radialGradient>
<linearGradient id="paint25_linear_10826_13043" x1="10.3128" y1="21.4736" x2="10.3128" y2="14.5781" gradientUnits="userSpaceOnUse">
<stop offset="0.03" stop-color="#FFBD00"/>
<stop offset="0.52" stop-color="#EA6800"/>
<stop offset="0.98" stop-color="#A40016"/>
</linearGradient>
<linearGradient id="paint26_linear_10826_13043" x1="6.60082" y1="13.7727" x2="6.60082" y2="11.3715" gradientUnits="userSpaceOnUse">
<stop offset="0.03" stop-color="#FFBD00"/>
<stop offset="0.52" stop-color="#EA6800"/>
<stop offset="0.98" stop-color="#A40016"/>
</linearGradient>
<linearGradient id="paint27_linear_10826_13043" x1="14.7441" y1="13.7727" x2="14.7441" y2="11.3715" gradientUnits="userSpaceOnUse">
<stop offset="0.03" stop-color="#FFBD00"/>
<stop offset="0.52" stop-color="#EA6800"/>
<stop offset="0.98" stop-color="#A40016"/>
</linearGradient>
<linearGradient id="paint28_linear_10826_13043" x1="10.6294" y1="16.3975" x2="10.6294" y2="14.4065" gradientUnits="userSpaceOnUse">
<stop offset="0.03" stop-color="#FFBD00"/>
<stop offset="0.52" stop-color="#EA6800"/>
<stop offset="0.98" stop-color="#A40016"/>
</linearGradient>
<linearGradient id="paint29_linear_10826_13043" x1="14.382" y1="13.7714" x2="14.382" y2="12.02" gradientUnits="userSpaceOnUse">
<stop stop-color="#701325"/>
<stop offset="1" stop-color="#590020"/>
</linearGradient>
<linearGradient id="paint30_linear_10826_13043" x1="7.05348" y1="13.7832" x2="7.05348" y2="11.9102" gradientUnits="userSpaceOnUse">
<stop stop-color="#701325"/>
<stop offset="1" stop-color="#590020"/>
</linearGradient>
<linearGradient id="paint31_linear_10826_13043" x1="10.6248" y1="16.3965" x2="10.6248" y2="15.1212" gradientUnits="userSpaceOnUse">
<stop stop-color="#701325"/>
<stop offset="1" stop-color="#590020"/>
</linearGradient>
<linearGradient id="paint32_linear_10826_13043" x1="10.0801" y1="20.8612" x2="10.0801" y2="15.7441" gradientUnits="userSpaceOnUse">
<stop stop-color="#701325"/>
<stop offset="1" stop-color="#590020"/>
</linearGradient>
<linearGradient id="paint33_linear_10826_13043" x1="9.66717" y1="21.4274" x2="9.66717" y2="20.2402" gradientUnits="userSpaceOnUse">
<stop offset="0.01" stop-color="#A4006D"/>
<stop offset="0.05" stop-color="#A8076E"/>
<stop offset="0.36" stop-color="#C33875"/>
<stop offset="0.63" stop-color="#D75B7B"/>
<stop offset="0.86" stop-color="#E3717E"/>
<stop offset="1" stop-color="#E7797F"/>
</linearGradient>
<linearGradient id="paint34_linear_10826_13043" x1="12.4033" y1="12.2093" x2="16.4919" y2="12.2093" gradientUnits="userSpaceOnUse">
<stop offset="0.01" stop-color="#A4006D"/>
<stop offset="0.05" stop-color="#A8076E"/>
<stop offset="0.36" stop-color="#C33875"/>
<stop offset="0.63" stop-color="#D75B7B"/>
<stop offset="0.86" stop-color="#E3717E"/>
<stop offset="1" stop-color="#E7797F"/>
</linearGradient>
<linearGradient id="paint35_linear_10826_13043" x1="5.11035" y1="12.1562" x2="8.90567" y2="12.1562" gradientUnits="userSpaceOnUse">
<stop offset="0.01" stop-color="#A4006D"/>
<stop offset="0.05" stop-color="#A8076E"/>
<stop offset="0.36" stop-color="#C33875"/>
<stop offset="0.63" stop-color="#D75B7B"/>
<stop offset="0.86" stop-color="#E3717E"/>
<stop offset="1" stop-color="#E7797F"/>
</linearGradient>
</defs>
</svg>
