<svg width="215" height="104" viewBox="0 0 215 104" fill="none" xmlns="http://www.w3.org/2000/svg">
<path d="M144.297 3.19724C137.057 2.34911 129.409 5.60929 125.088 13.4222C120.778 16.6248 118.32 22.0833 117.6 28.2034C116.643 36.3793 118.269 44.0566 122.41 49.6237C122.465 50.3802 122.502 51.1367 122.482 51.8899C122.448 53.1078 122.627 54.2782 123.15 55.3842C123.442 56.005 124.226 57.6843 125.166 57.189C126.015 56.7412 126.073 55.0415 126.198 54.2205C126.222 54.0577 126.219 53.8135 126.263 53.5997C126.562 53.8372 126.87 54.0645 127.183 54.285C127.176 54.8889 127.254 55.4656 127.081 56.0695C126.813 56.9956 126.378 58.0846 126.511 59.065C126.643 60.0862 127.481 60.7613 127.383 61.8571C127.342 62.3117 127.179 62.7527 127.162 63.2107C127.142 63.8654 127.427 64.4897 127.702 65.0834C128.004 65.7245 128.32 66.3827 128.764 66.939C128.995 67.2308 129.487 67.6176 129.881 67.3937C130.373 67.1121 130.207 66.3148 130.231 65.8535C130.258 65.2733 130.258 64.6932 130.231 64.1131C130.204 63.4821 129.98 62.8273 130.278 62.2234C130.482 61.8062 130.9 61.5246 131.344 61.3855C131.785 61.243 132.257 61.2261 132.722 61.2159C132.909 61.2125 133.113 61.2193 133.248 61.3448C133.371 61.4601 133.293 63.6449 133.279 63.8112C133.262 63.9774 133.214 64.1402 133.218 64.3099C133.221 65.1342 134.338 65.5855 135.03 65.521C135.821 65.4464 136.524 64.8188 136.69 64.0419C136.751 63.7501 137.858 62.4541 138.055 62.2302C138.255 61.9996 138.591 61.9554 138.897 61.9283C140.241 61.8096 140.489 60.6765 141.755 60.1812C141.86 60.1371 141.969 60.0964 142.081 60.0964C142.464 60.093 142.613 60.5951 142.675 60.897C142.776 61.4262 142.617 62.9766 143.499 62.9596C144.463 62.9393 144.321 61.0157 144.694 60.4458C144.742 60.3745 144.806 60.2965 144.894 60.2863C144.986 60.2762 145.068 60.3372 145.139 60.3983C145.777 60.9343 146.408 61.528 146.907 62.1997C147.596 63.1293 147.495 64.3947 147.62 65.4972C147.674 65.9993 147.803 66.4946 147.997 66.9594C148.061 67.1155 148.139 67.2783 148.279 67.3733C148.54 67.5565 148.927 67.4276 149.12 67.1765C149.314 66.9221 149.361 66.5896 149.378 66.2707C149.439 65.1308 149.395 63.5974 149.399 62.4576C149.402 61.3143 149.711 60.0794 150.617 59.3873C150.872 59.1906 151.164 59.0447 151.391 58.8208C151.622 58.5969 151.778 58.2576 151.67 57.9591C151.602 57.7759 151.452 57.6402 151.34 57.4841C150.987 56.9922 151.038 56.3036 151.306 55.7607C151.496 55.374 151.792 55.0687 152.077 54.7566C157.274 51.0248 160.729 44.6706 162.314 37.0884L162.416 37.1054L162.443 36.9391L162.348 36.9255C162.606 35.6703 162.813 34.3846 162.966 33.0683C164.697 18.2973 158.183 4.82564 144.297 3.19724ZM143.791 17.1879C143.91 17.344 143.985 17.5374 144.032 17.7307C144.137 18.1785 144.199 18.6297 144.229 19.0877L140.519 20.1564C140.458 19.9834 140.4 19.8002 140.356 19.6C140.292 19.2981 140.298 18.9724 140.441 18.7044C140.509 18.5755 140.601 18.4669 140.706 18.3651L143.791 17.1879ZM154.341 29.1838C154.3 29.5163 154.256 29.8488 154.198 30.1778L152.606 26.7989L154.405 25.4046C154.511 26.6089 154.494 27.8743 154.341 29.1838ZM132.525 35.9214L133.761 41.2272L133.445 41.4715C132.719 39.8228 132.376 37.8992 132.525 35.9214ZM144.1 22.3038C144.151 22.6634 144.589 22.9925 145.02 23.0841L144.935 23.5692L137.865 25.6862L137.702 25.4351C137.726 24.8855 137.905 24.6989 138.574 24.6956C139.002 24.6922 139.592 24.8821 140 24.76C140.478 24.6175 140.37 23.7117 140.424 23.3182C140.451 23.1113 140.489 22.9111 140.533 22.7076L144.083 21.7305C144.073 21.9273 144.076 22.1206 144.1 22.3038ZM142.42 33.93L142.169 33.8926L142.444 33.1158L142.708 33.5228L142.42 33.93ZM142.474 34.4558L142.372 34.5372L142.189 34.0691L142.389 34.0996L142.474 34.4558ZM143.503 34.7577L143.143 34.8391L143.231 34.3371L143.503 34.7577ZM143.374 34.2455L143.717 34.2963L143.611 34.6152L143.374 34.2455ZM142.607 33.9605L142.807 33.6789L143.031 34.0216L142.607 33.9605ZM142.848 34.1674L142.624 34.3405L142.569 34.1267L142.848 34.1674ZM142.953 33.5873L143.197 33.5432L143.14 33.8791L142.953 33.5873ZM143.228 33.3668L142.851 33.4347L142.559 32.9801L143.323 32.8172L143.228 33.3668ZM143.078 34.2013H143.082L142.973 34.8324L142.505 34.6492L143.078 34.2013ZM143.112 35.019L143.598 34.907L144.178 35.806L142.946 35.9689L143.112 35.019ZM143.279 34.0589L143.282 34.0453L143.611 33.7875L143.72 34.1267L143.279 34.0589ZM143.326 33.7943L143.364 33.5737L143.506 33.6552L143.326 33.7943ZM143.652 33.5432L143.394 33.394L143.493 32.8308L144.154 33.1531L143.652 33.5432ZM143.353 32.634L142.461 32.8274L141.975 32.0743L143.516 31.7011L143.353 32.634ZM142.328 32.9326L141.999 33.8689L141.042 33.723L141.85 32.1862L142.328 32.9326ZM141.996 34.0385L142.233 34.6458L141.497 35.2157L141.035 33.896L141.996 34.0385ZM142.349 34.7679L142.943 35.002L142.78 35.9417L141.612 35.3412L142.349 34.7679ZM142.916 36.1453L144.28 35.9655L144.776 36.739L142.78 36.9255L142.916 36.1453ZM143.73 34.7984L143.886 34.3235L144.63 34.4354L144.29 35.6669L143.73 34.7984ZM143.907 34.1539L143.757 33.6755L144.273 33.2752L144.613 34.259L143.907 34.1539ZM143.523 32.6578L143.686 31.7214L145.047 32.4576L144.304 33.0343L143.523 32.6578ZM143.55 31.5213L141.88 31.9216L141.385 31.1549L143.71 30.6053L143.55 31.5213ZM141.741 32.0234L140.862 33.6959L140 33.567L141.256 31.2634L141.741 32.0234ZM140.845 33.8655L141.354 35.3243L140.594 35.918L139.986 33.7366L140.845 33.8655ZM141.466 35.4566L142.749 36.1147L142.61 36.8984L140.709 36.0435L141.466 35.4566ZM142.749 37.0986L144.881 36.8984L145.536 37.9161L142.535 38.33L142.749 37.0986ZM144.412 35.8603L144.799 34.4592L145.865 34.6186L144.911 36.6338L144.412 35.8603ZM144.799 34.2896L144.412 33.1632L145.163 32.5831L145.862 34.449L144.799 34.2896ZM143.717 31.545L143.88 30.6189L146.025 31.7011L145.193 32.3457L143.717 31.545ZM143.74 30.4221L141.286 31.0022L140.628 29.9777L143.958 29.177L143.74 30.4221ZM141.15 31.1006L139.823 33.5398L138.713 33.3736L140.499 30.0896L141.15 31.1006ZM139.803 33.7095L140.448 36.0299L139.559 36.7186L138.696 33.5432L139.803 33.7095ZM140.556 36.1622L142.583 37.0714L142.369 38.2995L139.667 36.8509L140.556 36.1622ZM142.505 38.5064L145.638 38.0722L146.408 39.2732L142.22 40.1281L142.505 38.5064ZM145.02 36.8034L146.042 34.6458L147.223 34.8256L145.672 37.8144L145.02 36.8034ZM146.055 34.4762L145.302 32.4746L146.144 31.8232L147.223 34.6526L146.055 34.4762ZM143.91 30.4459L144.124 29.2042L146.9 31.0192L146.171 31.5857L143.91 30.4459ZM143.988 28.9939L140.533 29.8284L139.032 27.4978L144.389 26.7107L143.988 28.9939ZM140.394 29.9268L138.533 33.3465L136.507 33.0445L138.903 27.6097L140.394 29.9268ZM138.513 33.5161L139.416 36.8339L137.773 38.1061L136.497 33.2141L138.513 33.5161ZM139.521 36.9663L142.338 38.4759L142.05 40.1145L137.888 38.235L139.521 36.9663ZM142.189 40.3079L146.507 39.4258L147.776 41.4003L141.67 43.2933L142.189 40.3079ZM146.646 39.3308L149.1 35.1072L150.59 35.3311L147.895 41.2713L146.646 39.3308ZM146.544 39.168L145.777 37.9772L147.403 34.8493L148.917 35.08L146.544 39.168ZM147.416 34.6831L146.283 31.7113L147.016 31.1413L148.903 34.9036L147.416 34.6831ZM144.158 29.0244L144.555 26.7378L149.256 29.1872L147.043 30.9072L144.158 29.0244ZM144.419 26.5343L138.931 27.3383L137.96 25.832L144.901 23.7558L144.419 26.5343ZM138.791 27.4401L136.33 33.0174L133.988 32.6646L135.889 29.3433C136.086 29.5027 136.324 29.5638 136.602 29.462C136.768 29.401 136.894 29.272 137.006 29.1363C137.488 28.563 137.804 27.8268 137.804 27.0703C137.804 26.7548 137.763 26.4427 137.729 26.1272L137.834 25.9474L138.791 27.4401ZM137.705 25.8286C137.705 25.8015 137.702 25.7744 137.702 25.7472L137.729 25.7879L137.705 25.8286ZM135.207 28.0745C135.329 28.5019 135.509 28.9464 135.764 29.2245L133.808 32.6374L133.184 32.5424C133.666 30.9615 134.372 29.4349 135.207 28.0745ZM136.317 33.187L137.627 38.2215L135.183 40.1213L133.958 32.8308L136.317 33.187ZM137.736 38.3504L142.023 40.2875L141.497 43.2899L135.282 40.2604L137.736 38.3504ZM141.636 43.4833L147.871 41.5461L148.285 42.1873C147.698 42.8217 147.08 43.3985 146.449 43.9073L141.374 44.9861L141.636 43.4833ZM148.004 41.441L150.767 35.3548L152.552 35.6262C151.486 38.0586 150.044 40.274 148.404 42.0618L148.004 41.441ZM149.11 34.9375L147.155 31.0362L149.358 29.3229L150.607 35.1614L149.11 34.9375ZM144.586 26.5614L145.071 23.7796L151.072 27.7793L149.406 29.0719L144.586 26.5614ZM132.573 35.3887C132.678 34.4931 132.872 33.5907 133.133 32.7087L133.781 32.807L135.03 40.24L133.907 41.1119L132.573 35.3887ZM135.132 40.3757L141.466 43.4629L141.205 44.9658L134.012 41.2442L135.132 40.3757ZM141.344 45.1659L146.147 44.1448C144.528 45.3932 142.81 46.2074 141.127 46.4178L141.344 45.1659ZM150.787 35.1886L149.507 29.2076L151.167 27.9184L153.007 34.5236C152.885 34.8391 152.759 35.1547 152.623 35.4634L150.787 35.1886ZM151.313 27.8065L152.471 26.9075L154.147 30.473C153.913 31.7587 153.56 33.0276 153.105 34.2556L151.313 27.8065ZM151.211 27.6674L145.101 23.5964L145.186 23.1079C145.482 23.1282 145.746 23.023 145.852 22.7211C145.903 22.5685 145.909 22.4022 145.909 22.2428C145.913 22.0799 145.909 21.9171 145.903 21.7543L152.365 26.7752L151.211 27.6674ZM144.26 19.963C144.26 20.4583 144.144 21.0181 144.097 21.5507L140.573 22.5209C140.648 22.1613 140.726 21.8051 140.757 21.4421C140.791 21.0011 140.692 20.6652 140.573 20.3158L144.243 19.2608C144.253 19.4948 144.26 19.7289 144.26 19.963ZM135.088 44.0396C134.46 43.3442 133.931 42.53 133.52 41.6276L133.863 41.3596L141.174 45.1422L140.95 46.4381C140.563 46.4754 140.173 46.4822 139.789 46.4517L135.088 44.0396ZM139.304 46.394C137.821 46.1735 136.507 45.4611 135.441 44.4094L139.304 46.394ZM154.388 25.2044L152.494 26.6734L145.896 21.5371C145.882 21.052 145.875 20.5737 146.018 20.1089C146.11 19.8137 146.184 19.5118 146.296 19.2234C146.313 19.1759 146.34 19.1352 146.368 19.0945L148.781 20.5058C148.951 20.8383 149.246 20.9977 149.63 21.035C149.647 21.0384 149.67 21.0384 149.697 21.0418L154.161 23.6507C154.259 24.1561 154.334 24.6752 154.388 25.2044ZM146.493 18.9724C146.917 18.6365 147.803 18.6264 148.116 18.9758C148.258 19.1386 148.336 19.3422 148.411 19.5457C148.499 19.7798 148.587 20.0105 148.676 20.248L146.493 18.9724ZM154.113 23.4268L150.047 21.0486C150.169 21.0452 150.281 21.0283 150.332 20.9909C150.502 20.8552 150.403 20.6415 150.434 20.4685C150.495 20.0851 150.672 19.6679 150.868 19.3354C150.96 19.1861 151.089 19.0843 151.245 19.0233L152.942 19.9868C153.458 21.035 153.856 22.1885 154.113 23.4268ZM141.035 18.0564C141.266 17.8325 141.47 17.5815 141.707 17.3677C142.196 16.9267 143.099 16.5298 143.669 17.0522L141.035 18.0564ZM152.413 19.0029C152.552 19.2336 152.681 19.4677 152.803 19.712L151.473 18.9554C151.751 18.9079 152.084 18.9385 152.413 19.0029ZM124.345 28.9939C124.637 26.497 125.295 23.9831 126.602 21.8153C127.244 20.7501 128.069 19.6712 129.073 18.9181C130.139 18.1175 130.696 17.3372 131.365 16.1736C133.116 13.1203 136.215 10.8677 139.66 10.1417C143.095 9.41909 146.826 10.2163 149.657 12.2892C148.873 12.2247 148.18 11.7837 147.491 11.4037C144.81 9.9144 141.612 9.45302 138.937 11.2273C138.747 11.3528 138.537 11.5191 138.316 11.5767C138.014 11.6582 137.631 11.5021 137.356 11.6751C137.115 11.8244 136.938 12.34 136.782 12.5775C136.256 13.368 135.519 13.9786 134.952 14.7352C134.324 15.5697 134.016 16.5875 133.598 17.534C132.519 19.9902 130.832 22.236 129.426 24.5157C128.082 26.7005 127.05 29.1126 126.419 31.5281L124.165 31.1888L124.155 31.2533C124.192 30.4967 124.257 29.7436 124.345 28.9939ZM124.705 38.3911C124.199 36.0876 124.043 33.7128 124.152 31.3584L126.378 31.6943C126.124 32.6747 125.94 33.6518 125.828 34.6118C125.38 38.4318 126.11 42.3502 127.984 45.7121L127.977 45.7155C127.95 45.6612 127.916 45.6104 127.885 45.5595C127.23 44.4908 126.507 43.5206 125.988 42.3536C125.424 41.0814 125.004 39.7481 124.705 38.3911ZM137.159 55.0415C136.989 55.1772 136.792 55.2688 136.582 55.3197C135.448 55.5843 133.931 54.6446 133.89 53.4335C133.88 53.101 133.89 52.7651 133.92 52.4327C133.988 51.7169 134.494 51.7372 135.02 52.0256C136.473 52.8161 138.116 53.1926 139.762 53.2537L139.681 53.7185C138.764 54.0034 137.899 54.4478 137.159 55.0415ZM143.028 53.3792C141.979 53.2673 140.889 53.3656 139.861 53.6608L139.932 53.2571C139.986 53.2605 140.037 53.2605 140.091 53.2605C141.863 53.2774 143.554 52.3716 145.288 52.4056C145.543 53.8847 143.866 53.4708 143.028 53.3792Z" fill="white"/>
<path d="M170.271 51.7837C170.24 51.8821 170.206 51.9839 170.169 52.0822C170.016 52.4724 169.802 52.8557 169.799 53.273C169.796 53.5715 169.901 53.8565 170.003 54.1313C170.172 54.5995 170.342 55.0643 170.515 55.529C170.556 55.6444 170.607 55.7699 170.712 55.831C170.868 55.926 171.072 55.8412 171.214 55.7224C171.493 55.4917 171.662 55.1558 171.91 54.8878C172.158 54.6232 172.555 54.4299 172.878 54.5927C173.234 54.7725 173.115 55.2984 173.448 55.5053C173.618 55.6071 173.835 55.5867 174.015 55.5121C174.293 55.4001 174.51 55.1864 174.758 55.0201C175.006 54.8505 175.318 54.7284 175.596 54.8336C175.871 54.9388 176.031 55.2271 176.289 55.3628C176.523 55.4849 176.812 55.4646 177.049 55.3526C177.453 55.166 177.698 54.7759 177.881 54.3858C178.159 53.8022 178.339 53.1882 178.458 52.5606C178.628 52.3299 178.743 52.0585 178.777 51.76C180.209 39.34 184.025 25.8174 189.32 11.0091C189.748 9.82176 188.811 8.88204 187.616 8.67849L178.567 7.38934C177.446 7.26721 176.594 7.83376 176.241 9.02113C171.846 23.8701 170.42 37.8676 169.884 50.3249C169.863 50.8779 169.989 51.3868 170.271 51.7837ZM177.406 26.5435C177.799 24.2501 178.244 21.967 178.746 19.694C179.008 18.5168 179.283 17.343 179.575 16.1692C179.714 15.5992 179.86 15.0327 180.009 14.4627C180.186 13.791 180.07 12.9395 180.936 12.8411C181.425 12.7868 182.083 12.8716 182.535 13.0616C183.604 13.5128 182.769 14.9004 182.446 15.5789C181.832 16.8816 181.438 18.3268 180.99 19.7007C178.926 26.0312 177.151 32.443 175.783 38.96C176.194 34.8822 176.408 30.5263 177.406 26.5435Z" fill="white"/>
<path d="M172.853 56.5431C169.323 56.3938 166.353 59.0468 166.204 62.5004C166.163 63.4435 166.316 64.3493 166.621 65.1737C166.625 66.6257 166.625 68.0777 166.625 69.5331C166.628 69.9368 166.628 70.3507 166.767 70.7307C166.906 71.1106 167.212 71.4566 167.609 71.5245C168.101 71.6127 168.621 71.1887 168.634 70.69C168.634 70.5644 168.617 70.4185 168.705 70.3303C168.828 70.2082 169.031 70.293 169.174 70.3914C169.737 70.7917 170.168 71.3854 170.372 72.0504C170.576 72.7187 170.613 73.5363 171.193 73.9298C171.737 74.2928 172.521 74.0519 172.948 73.5566C173.373 73.0613 173.522 72.3896 173.607 71.7416C173.671 71.2463 173.746 70.6458 174.238 70.3846C174.544 70.2218 174.917 70.2625 175.25 70.3642C175.579 70.466 175.895 70.6255 176.234 70.6933C177.042 70.8596 177.47 70.3235 177.68 69.6145C178.033 68.4169 178.182 67.1685 178.216 65.92C178.651 65.1024 178.922 64.1831 178.963 63.1958C179.116 59.6676 176.383 56.6958 172.853 56.5431ZM173.142 65.1025C173.142 65.1907 173.142 65.2823 173.091 65.3535C173.047 65.4112 172.979 65.4383 172.914 65.4655C172.476 65.6419 172.008 66.015 171.692 65.6656C171.455 65.4044 171.489 64.6445 171.414 64.3018C171.343 63.8201 171.302 63.3384 171.288 62.9347C171.265 62.2019 171.808 61.6082 172.568 61.6251L172.636 61.6285C173.081 61.6455 173.373 61.866 173.539 62.0458C173.702 62.2222 173.895 62.5309 173.875 62.9754C173.844 63.759 173.166 64.329 173.142 65.1025Z" fill="white"/>
<path d="M213.053 21.7393L204.326 19.0287C203.237 18.7301 202.306 19.1508 201.77 20.2703C195.066 34.2305 191.434 47.8277 188.926 60.0407C188.814 60.5869 188.861 61.1195 189.085 61.5571C188.787 62.4154 188.712 63.4942 188.902 64.305C188.933 64.4373 188.987 64.5799 189.109 64.6341C189.306 64.7224 189.51 64.5154 189.612 64.3254C189.713 64.132 189.832 63.8979 190.049 63.8844C190.155 63.8776 190.253 63.9251 190.338 63.9862C191.024 64.4849 191 65.4178 190.986 66.1709C190.966 67.2158 190.878 68.298 191.421 69.2378C191.618 69.577 191.879 69.6109 192.235 69.6482C193.081 69.7432 193.128 69.1428 193.067 68.4439C193.043 68.2031 193.023 67.9588 193.081 67.7213C193.138 67.4872 193.288 67.2599 193.515 67.1751C194.303 66.8664 194.561 68.4507 194.802 68.8883C195.06 69.3497 195.467 70.5507 196.149 69.7975C196.458 69.4549 196.679 68.9969 196.876 68.5796C197.083 68.1386 197.239 67.6704 197.33 67.1887C197.412 66.768 197.364 66.5238 197.755 66.3134C198.325 66.0047 198.787 65.8724 199.153 65.2617C199.815 64.1456 199.852 62.8497 199.795 61.5876C199.764 60.9465 199.686 60.2951 199.717 59.6505C199.747 59.0127 200.114 58.7922 200.518 58.3376C201.814 56.8924 200.806 54.6432 200.803 52.9605V52.8553C204.224 43.8041 208.851 34.3323 214.367 24.3074C214.978 23.2082 214.2 22.1294 213.053 21.7393ZM207.67 26.2004C207.398 27.4794 206.322 28.5786 205.721 29.7083C204.336 32.3171 203.05 34.9734 201.784 37.64C199.897 41.6194 198.155 45.6666 196.567 49.775C197.293 47.8887 197.622 45.7514 198.199 43.8075C200.002 37.718 202.208 31.7506 204.737 25.9256C205.222 24.8095 206.322 24.321 207.381 25.1793C207.67 25.4168 207.748 25.8374 207.67 26.2004Z" fill="white"/>
<path d="M189.509 71.3189C186.051 70.6098 182.694 72.7573 181.998 76.143C181.787 77.1777 181.821 78.1989 182.055 79.1488C182.022 79.7391 182.076 80.3226 182.079 80.9163C182.086 81.7441 181.784 82.5379 181.713 83.3589C181.675 83.783 181.682 84.3326 181.899 84.7159C182.201 85.2553 182.52 84.9229 182.745 84.5327C183.223 83.7083 183.518 83.1248 184.601 83.2402C187.317 83.5353 186.261 87.1145 185.942 88.8887C185.894 89.1534 185.884 89.4485 186.04 89.669C186.227 89.9336 186.655 90.1507 186.981 90.0456C187.456 89.8929 187.381 89.3366 187.605 88.977C187.975 88.3833 188.138 88.96 188.243 89.3637C188.362 89.8081 188.416 90.2763 188.501 90.7275C188.549 90.9989 188.529 91.4399 188.732 91.6536C189.044 91.9827 189.594 91.6774 189.781 91.3279C190.351 90.2695 189.954 89.0346 190.236 87.9151C190.334 87.525 190.406 87.1348 190.484 86.7413C190.548 86.419 190.674 86.0865 190.945 85.8999C191.152 85.7574 191.414 85.7201 191.641 85.615C192.911 85.0314 192.449 83.2097 192.697 82.141C193.576 81.2793 194.217 80.1564 194.486 78.857C195.195 75.3967 192.972 72.0279 189.509 71.3189ZM189.139 78.5008C188.868 78.7655 188.603 79.0301 188.311 79.2845C187.958 78.9317 187.452 78.9486 187.164 78.5076C186.923 78.1378 186.903 77.5814 186.987 77.1642C187.113 76.5535 187.697 76.2719 188.182 76.2719C189.306 76.2719 189.958 77.6968 189.139 78.5008Z" fill="white"/>
<path d="M10.2438 53.7441C10.0062 53.147 9.68375 52.533 9.1135 52.2413C8.38711 51.8749 7.34843 52.0716 6.87662 51.4101C6.57791 50.9894 6.65598 50.3822 6.34031 49.9751C6.07216 49.6256 5.59355 49.5273 5.15568 49.4798C4.59222 49.4187 4.00839 49.4051 3.46529 49.568C3.05797 49.6901 2.75587 49.8971 2.51487 50.1583C2.18901 50.5111 1.97517 50.9691 1.75454 51.4508C1.30309 52.4516 0.916131 53.4829 0.600456 54.5312C0.505414 54.8399 0.420555 55.1894 0.576696 55.4743C0.664949 55.6372 0.821089 55.7525 0.970441 55.8644C2.43001 56.9297 3.89977 57.9882 5.37292 59.0364C5.62071 59.2129 5.87868 59.3926 6.17738 59.4469C6.57791 59.5216 6.97845 59.3587 7.34504 59.1823C8.46857 58.6497 9.52761 57.978 10.4916 57.1909C10.6511 57.0586 10.8175 56.9161 10.8955 56.7227C10.9838 56.5056 10.9498 56.2647 10.9057 56.0341C10.7598 55.2504 10.5391 54.4837 10.2438 53.7441Z" fill="white"/>
<path d="M65.5888 25.638C65.7653 25.6855 65.952 25.6482 66.1319 25.6041C66.9432 25.4005 67.6865 25.0477 68.4333 24.6813C68.8067 24.4981 69.2004 24.2979 69.4143 23.9451C69.5093 23.7891 69.5636 23.6126 69.6722 23.4668C69.9268 23.1275 70.3986 23.0563 70.8195 23.002C71.5188 22.9104 72.2248 22.7984 72.8969 22.5813C73.2838 22.4558 73.7047 22.3913 74.0611 22.1878C74.9437 21.6823 74.4956 19.9046 74.258 19.1651C73.8778 17.9845 73.036 15.9286 71.7462 15.5724C70.9892 15.362 70.1644 14.9617 69.3905 15.267C68.9967 15.4231 68.6471 15.6742 68.267 15.8675C67.9343 16.0372 67.7408 16.2068 67.6085 16.4171C67.4489 16.6682 67.3844 16.9769 67.286 17.4009C67.1061 18.1609 66.5834 18.8292 65.8943 19.1922C65.2392 19.5348 64.4551 19.6332 64.1055 20.3694C63.9324 20.7358 63.8848 21.1531 63.8848 21.5568C63.8781 22.8425 64.3159 24.1351 65.0593 25.18C65.1951 25.3768 65.3614 25.5735 65.5888 25.638Z" fill="white"/>
<path d="M119.264 9.07215C119.844 8.71254 120.424 8.34954 121.005 7.98994C121.582 7.63033 121.691 7.3284 122.016 6.75506C122.536 5.84587 124.046 5.25218 125.01 4.99435C125.686 4.81455 126.382 4.93328 127.071 4.9231C127.729 4.91293 128.211 4.68564 128.218 3.95964C128.221 3.4372 128.289 2.91475 128.425 2.40587C128.537 1.98859 128.809 1.5374 128.547 1.12012C128.293 0.71302 127.685 0.655335 127.278 0.492495C126.589 0.21431 125.879 -0.0129923 125.713 0.00057769C124.596 0.0853903 123.062 0.380556 122.268 1.24904C121.908 1.64257 121.684 2.14804 121.31 2.53139C121.032 2.81636 120.679 3.02332 120.333 3.22008C119.956 3.4372 119.579 3.65432 119.165 3.79002C118.822 3.90197 118.466 3.95285 118.123 4.05802C116.989 4.40405 116.209 5.41841 115.611 6.38867C115.506 6.56169 115.401 6.74489 115.387 6.94844C115.37 7.20627 115.503 7.45053 115.638 7.66765C115.89 8.07136 116.127 8.53953 116.555 8.7329C117.054 8.9602 117.699 9.02804 118.228 9.16713C118.619 9.2689 118.917 9.28927 119.264 9.07215Z" fill="white"/>
<path d="M112.743 61.1875C112.668 61.1536 112.586 61.123 112.505 61.123C112.417 61.123 112.332 61.1604 112.254 61.1977C111.853 61.3809 111.439 61.5845 111.168 61.9441C110.767 62.4767 110.54 63.1111 109.739 63.0874C109.487 63.0806 109.24 62.9958 108.985 63.0059C108.751 63.0127 108.612 63.0975 108.527 63.2231C108.394 63.4165 108.391 63.7048 108.384 63.9796C108.374 64.2646 108.279 64.9092 108.462 65.1568L109.569 66.6394L111.432 67.3111L113.262 67.077L114.579 66.0287C114.579 65.7336 114.521 65.3774 114.579 65.089C114.684 64.5801 115.258 64.4546 115.489 64.0441C115.733 63.6098 115.244 63.0433 115.034 62.6769C114.542 61.8355 113.581 61.5471 112.743 61.1875Z" fill="white"/>
<path d="M157.337 54.4019C156.967 54.3612 156.604 54.5003 156.234 54.5511C155.433 54.6597 154.279 54.2492 153.583 54.7751C153.485 54.8497 153.397 54.9413 153.318 55.0532C152.887 55.6876 152.976 56.8106 153.539 57.3466C153.926 57.7096 154.452 57.8792 154.972 57.998C155.637 58.1506 157.334 58.6154 157.904 58.1642C158.234 57.903 158.342 57.2143 158.4 56.8343C158.532 55.9794 158.464 54.5308 157.337 54.4019Z" fill="white"/>
<path d="M170.525 17.0281C171.068 16.5532 171.615 16.0782 172.161 15.6067C172.568 15.2572 173.743 14.7789 173.485 14.0801C173.339 13.6865 172.921 13.3371 172.664 13.0148C172.321 12.584 171.985 12.1396 171.54 11.8071C170.99 11.4 170.325 11.2609 169.656 11.2202C169.232 11.193 169.076 11.1829 168.75 11.4509C168.159 11.9326 167.626 12.3702 167.236 12.9368C167.029 13.2387 166.863 13.578 166.747 13.9817C166.516 14.8061 165.658 16.0952 166.482 16.8314C167.609 17.8356 169.347 18.0561 170.525 17.0281Z" fill="white"/>
<path d="M23.2712 98.0738C22.6976 97.8906 22.0968 98.006 21.5095 98.0433C21.2516 98.0603 20.9495 98.1009 20.7017 98.0195C20.4776 97.9449 20.3181 97.6769 20.0466 97.799C20.0398 97.8024 20.033 97.8058 20.0262 97.8092C19.7445 97.9585 19.6426 98.7048 19.568 98.9728C19.4559 99.3833 19.3643 99.7972 19.2794 100.214C19.181 100.696 19.4458 100.869 19.8327 101.086C20.3351 101.368 21.1973 102.057 21.7811 102.101C21.9304 102.111 22.0764 102.06 22.219 102.002C22.7077 101.806 23.2169 101.626 23.5835 101.225C23.8652 100.917 24.0451 100.533 24.2182 100.157C24.3676 99.8345 24.7477 99.4274 24.612 99.0712C24.4524 98.6471 23.6717 98.1993 23.2712 98.0738Z" fill="white"/>
<path d="M2.92532 63.7799C2.85065 63.6544 2.76918 63.5254 2.65377 63.4338C2.50103 63.3151 2.30415 63.271 2.11068 63.2574C1.23493 63.1862 0.53909 63.5254 0.209838 64.1293C0.023148 64.4685 -0.0481336 64.8926 0.0333309 65.3778C0.108007 65.8357 0.182682 66.2972 0.257358 66.7551C0.270936 66.8366 0.287908 66.9213 0.349006 66.9756C0.399921 67.0197 0.471203 67.0299 0.535695 67.0401C1.04145 67.1114 1.54721 67.1792 2.05637 67.2165C2.36186 67.2403 2.68093 67.2471 2.96266 67.1283C3.31567 66.979 3.55667 66.6533 3.7807 66.3412C3.87574 66.2123 3.97078 66.0698 3.97757 65.9104C3.98436 65.7747 3.92666 65.6458 3.86556 65.5237C3.58043 64.9266 3.26476 64.3464 2.92532 63.7799Z" fill="white"/>
<path d="M56.8278 14.1575C56.9228 14.1711 57.0179 14.1847 57.1095 14.1541C57.174 14.1338 57.2249 14.0897 57.2792 14.049C57.5779 13.8115 57.88 13.574 58.1584 13.3128C58.5962 12.8989 58.6947 12.5088 58.6845 11.9252C58.6743 11.0466 57.5067 10.7514 56.787 10.6225C55.9249 10.4664 54.9643 10.5818 54.3295 11.2399C54.2583 11.3146 54.2141 11.3756 54.1904 11.4333C53.9867 11.9456 54.54 13.1805 54.8658 13.5842C55.2935 14.1236 56.2066 14.0693 56.8278 14.1575Z" fill="white"/>
<path d="M129.48 75.1283C128.618 74.9723 127.658 75.0877 127.023 75.7458C126.952 75.8204 126.907 75.8815 126.884 75.9392C126.68 76.4514 127.233 77.6863 127.559 78.09C127.994 78.6294 128.903 78.5752 129.525 78.6634C129.62 78.6769 129.715 78.6905 129.806 78.66C129.871 78.6396 129.922 78.5955 129.976 78.5548C130.275 78.3173 130.577 78.0798 130.855 77.8186C131.293 77.4047 131.391 77.0146 131.381 76.4311C131.368 75.5524 130.2 75.2573 129.48 75.1283Z" fill="white"/>
<path d="M82.4855 11.4337C82.9709 11.1996 83.6634 9.31682 82.8249 9.53055C82.7129 9.56108 82.6145 9.63233 82.5127 9.68661C82.2106 9.85284 81.8508 9.88336 81.5317 10.0123C81.362 10.0801 81.2194 10.209 81.1176 10.3617C80.9309 10.6433 80.8732 11.0165 81.0056 11.3252C81.25 11.8883 82.0273 11.6542 82.4855 11.4337Z" fill="white"/>
<path d="M98.4255 81.6419C98.3135 81.6724 98.2151 81.7436 98.1132 81.7979C97.8111 81.9642 97.4513 81.9947 97.1323 82.1236C96.9625 82.1914 96.82 82.3204 96.7182 82.473C96.5315 82.7546 96.4738 83.1278 96.6061 83.4365C96.8505 83.9963 97.6312 83.7622 98.0861 83.5417C98.5715 83.311 99.2639 81.4281 98.4255 81.6419Z" fill="white"/>
<path d="M211.757 46.9119C211.645 46.9425 211.546 47.0137 211.444 47.068C211.142 47.2342 210.782 47.2647 210.463 47.3936C210.294 47.4615 210.151 47.5904 210.049 47.7431C209.863 48.0246 209.805 48.3978 209.937 48.7065C210.182 49.2662 210.962 49.0322 211.417 48.8117C211.906 48.5776 212.598 46.6948 211.757 46.9119Z" fill="white"/>
<path d="M166.115 76.8776C165.508 76.8063 165.314 77.5934 165.274 78.0989C165.229 78.6349 166.502 80.1887 166.743 79.3541C166.777 79.2422 166.764 79.1235 166.767 79.0047C166.777 78.6587 166.933 78.3364 166.984 77.9937C167.011 77.8139 166.974 77.6273 166.893 77.4577C166.743 77.1591 166.448 76.9149 166.115 76.8776Z" fill="white"/>
<path d="M106.344 65.5303C105.93 65.1367 105.886 64.5058 105.974 63.8646C111.297 58.7826 113.937 50.5761 113.937 41.3621C113.937 26.4893 105.893 13.8691 91.9148 13.8691C84.6237 13.8691 77.4107 18.0012 74.0266 26.262C70.1197 29.9429 68.3139 35.6524 68.3139 41.8132C68.3139 47.4007 69.4713 52.6252 71.7048 56.9812L65.2216 59.4577C63.6568 56.0889 61.1144 53.1816 57.5877 51.1766C62.2685 47.2752 63.9996 42.1152 63.5516 36.9518C62.4111 23.7176 46.7733 16.8376 30.4329 18.2455C24.9883 18.7137 19.4318 20.1385 14.2486 22.5709C11.0681 24.0738 9.56776 25.3392 9.77821 27.7784C9.85968 28.7182 10.2466 29.9123 10.8373 31.2795C10.9594 31.5373 11.0816 31.802 11.2072 32.07C11.2276 32.4906 11.0952 32.9317 11.0952 33.3625C11.0918 34.3158 11.1529 35.3369 11.4007 36.2631C11.6485 37.1926 12.0728 38.0815 12.1543 39.0518C12.2459 40.1204 11.9574 41.1008 12.4699 42.0982C12.7585 42.658 13.1013 43.5875 13.5901 43.9879C13.8073 44.1677 14.0653 44.2864 14.3233 44.395C14.4081 44.4289 14.4998 44.4628 14.588 44.4492C14.6525 44.4357 14.7068 44.4017 14.7611 44.3678C15.199 44.0998 15.6369 43.8352 16.0713 43.5638C16.2139 43.4756 15.939 42.5393 15.9118 42.4036C15.827 41.9795 15.6063 41.5961 16.1732 41.5249C16.4176 41.4977 16.9131 41.7793 17.1066 41.552C17.4732 41.1144 17.8704 40.6835 18.1894 40.2086C18.2709 40.0865 18.3354 39.9542 18.3965 39.8151C21.5363 71.4299 24.9951 83.4597 26.4513 90.55C26.4784 90.662 26.5056 90.7706 26.5327 90.8825C26.3902 91.3168 26.2884 91.7544 26.3427 92.1818C26.4004 92.6229 26.6278 93.0368 26.6787 93.4947C26.7907 94.4752 26.7296 95.4624 26.8552 96.4428C26.9876 97.4606 27.2218 98.4648 27.5511 99.435C27.7004 99.8727 27.8022 100.246 27.7819 100.7C27.7615 101.196 27.7445 101.64 27.9109 102.122C28.1145 102.722 28.9563 103.18 29.5707 103.126C30.2054 103.072 30.5754 102.387 30.7689 101.857C30.9183 101.45 30.7316 100.904 30.942 100.507C31.329 99.7879 32.3065 99.737 32.7105 100.402C32.9922 100.87 32.9583 102.122 33.6439 102.159C34.2821 102.197 35.1205 102.095 35.5515 101.566C35.9657 101.053 35.9249 100.382 36.0302 99.7607C36.1659 98.9669 36.3458 98.1832 36.5699 97.4097C36.7735 96.7041 37.6085 96.6226 38.1788 96.3614C38.6268 96.1579 39.0817 95.9509 39.5637 95.8322C39.7911 95.7779 40.0898 95.6931 40.324 95.761C40.7144 95.8729 40.6567 96.1205 40.8162 96.4428C40.9146 96.6396 41.1285 96.7482 41.3389 96.8126C41.8311 96.9687 42.7646 97.023 43.1821 96.6328C43.4604 96.375 43.3891 95.9679 43.5283 95.6422C43.7795 95.0485 44.5805 94.8178 45.1542 94.9026C46.1216 95.0417 47.0211 95.1469 48.002 95.1401C48.9864 95.1299 49.465 93.8747 49.8112 93.1385C50.0013 92.7382 50.0964 92.3786 50.5648 92.2701C50.9959 92.1683 51.4337 92.3345 51.8716 92.2361C52.1432 92.1751 52.6557 91.8256 52.8322 92.2192C52.8865 92.3413 52.8797 92.4804 52.8695 92.6161C52.8356 93.0368 52.6964 93.5762 52.7541 93.99C52.8084 94.3937 53.097 94.7466 53.1615 95.174C53.2361 95.6693 53.1547 96.1884 53.2837 96.6769C53.4126 97.162 53.8811 97.6302 54.3665 97.4911C54.5735 97.4301 54.7364 97.274 54.8756 97.1112C55.1472 96.7889 55.3678 96.4089 55.4187 95.9882C55.4934 95.3742 55.1981 94.7805 54.8654 94.2581C54.7263 94.0375 54.5735 93.7967 54.6074 93.5388C54.6414 93.2403 54.9095 93.0368 55.1098 92.8095C55.3983 92.4838 55.5579 92.0529 55.5748 91.6153C55.5918 91.1234 55.4594 90.8486 55.989 90.5941C56.3589 90.4211 56.9156 90.3702 57.2177 90.0819C57.401 89.9054 57.5232 89.6782 57.6352 89.4509C58.1138 88.4874 58.3718 87.4561 58.7757 86.4757C61.1653 84.3689 63.0492 81.8923 64.4171 79.2258L68.0253 80.9662L67.7029 82.8151C67.394 82.7168 67.0613 82.6557 66.766 82.7608C66.318 82.9203 65.9785 83.2697 65.6052 83.5445C64.855 84.1009 63.9148 84.3723 63.0866 84.7862C62.8625 84.8981 62.6385 85.0236 62.4891 85.2204C62.4756 85.2374 62.4654 85.2543 62.4518 85.2713C62.1904 85.6581 62.2414 86.1771 62.2108 86.6215C62.1803 87.0659 62.1769 87.5884 62.4688 87.9548C62.6317 88.1583 62.91 88.2228 63.1578 88.3042C64.261 88.6706 64.9399 89.1557 66.1517 88.9793C66.5692 88.9182 66.9867 88.8572 67.4008 88.7961C68.1815 88.6842 68.341 88.1515 68.6872 87.5104C68.9927 86.9438 69.2405 86.34 69.3933 85.7123C69.6037 84.854 69.0538 83.8397 68.4904 83.1917C68.3783 83.0628 68.212 82.9915 68.0525 82.9305C67.9778 82.9033 67.8964 82.8728 67.8149 82.8456V82.8423L68.1407 80.973L76.3619 79.3514L77.3123 80.8271C77.1833 80.9357 77.0781 81.0612 77.0407 81.2444C77.0034 81.431 77.0272 81.6244 77.0713 81.8076C77.2105 82.3911 77.5499 82.9271 78.0047 83.3172C78.0896 83.3885 78.1846 83.4597 78.2967 83.4631C78.3815 83.4665 78.463 83.4292 78.5377 83.3884C78.8839 83.2086 79.1792 82.9644 79.4779 82.7167C79.6272 82.5946 79.7834 82.4589 79.8411 82.2757C79.8682 82.1943 79.8716 82.1095 79.9056 82.0314C79.9836 81.8482 80.1907 81.7634 80.374 81.6922C80.6795 81.5735 80.9884 81.4445 81.2667 81.2715C81.4262 81.1731 81.6129 81.0985 81.7521 80.9662C82.0949 80.6405 81.6978 79.884 81.5077 79.5753C81.2056 79.0834 80.598 78.2454 79.9735 78.2251C79.6069 78.2149 79.1894 78.1233 78.8737 78.3472C78.7108 78.4625 78.5818 78.6152 78.4324 78.7441C78.3 78.8561 78.2322 78.9544 78.1948 79.0664C78.1507 79.1987 78.1575 79.3446 78.1575 79.5481C78.1609 79.9111 77.9979 80.2741 77.7264 80.5116C77.628 80.5998 77.516 80.6711 77.4141 80.7491L76.4705 79.2801L81.45 71.2636L82.268 71.3857C82.2002 72.2678 82.1255 73.1533 82.4683 73.9539C82.6041 74.2694 82.8892 74.5951 83.2253 74.5238C83.3746 74.4899 83.4968 74.3813 83.6054 74.2694C84.325 73.5502 84.8783 72.6613 85.2008 71.6945C85.3196 71.345 85.4146 70.9753 85.642 70.6869C85.8728 70.3952 86.287 70.2119 86.6162 70.3748C86.8301 70.4799 86.9557 70.6971 87.0711 70.9006C87.4478 71.5656 87.8212 72.2339 88.198 72.8988C88.3032 73.0854 88.4152 73.2788 88.5985 73.3907C89.1009 73.6994 89.7017 73.2177 90.1294 72.8106C90.9881 71.9964 92.0438 71.3315 93.2182 71.189C94.3927 71.0465 95.6893 71.5283 96.2766 72.5562C96.9792 73.7877 96.5142 75.3211 96.5209 76.7425C96.5209 77.0648 96.5583 77.4177 96.7789 77.6551C97.2168 78.1233 98.0722 77.7908 98.3607 77.2175C98.6458 76.6475 98.5643 75.969 98.544 75.3278C98.5066 74.2321 98.6764 73.1329 99.0396 72.0982C99.2466 71.5079 99.5861 70.8803 100.19 70.7174C100.598 70.6089 101.066 70.7344 101.426 70.5139C101.83 70.2662 101.908 69.3197 102.078 68.9126C102.159 68.7193 102.285 68.3528 102.522 68.2884C102.923 68.1832 103.075 68.7091 103.299 68.916C103.676 69.2655 104.097 69.1908 104.518 68.9194C105.482 68.2986 106.042 67.2774 106.531 66.2733C106.612 66.107 106.656 65.9034 106.565 65.744C106.507 65.6626 106.419 65.6015 106.344 65.5303ZM77.2105 70.5173L75.442 70.2527L74.5425 66.0358L75.3775 65.3844C75.7034 66.2563 75.941 67.1621 76.0801 68.0848C76.1582 68.5903 76.2159 69.1229 76.4875 69.5572C76.6266 69.7743 76.8439 69.9575 77.0815 70.0559L77.2105 70.5173ZM69.6784 69.3842L69.8176 69.1874L69.9771 69.4317L69.6784 69.3842ZM69.8481 69.5334L69.6886 69.6556L69.6512 69.5029L69.8481 69.5334ZM70.1163 68.9669L69.8515 69.0144L69.6444 68.6955L70.1841 68.5802L70.1163 68.9669ZM70.2113 69.1128L70.3097 69.1705L70.1841 69.2688L70.2113 69.1128ZM69.9194 69.123L70.0925 69.0924L70.0518 69.3299L69.9194 69.123ZM70.1163 69.6522L70.3063 69.9473L70.0552 70.005L70.1163 69.6522ZM70.2181 69.5877L70.4591 69.6251L70.3844 69.849L70.2181 69.5877ZM70.1502 69.4554L70.1536 69.4452L70.3878 69.2654L70.4625 69.5029L70.1502 69.4554ZM70.4116 69.0924L70.2317 68.9873L70.3029 68.5903L70.768 68.8176L70.4116 69.0924ZM70.2045 68.4513L69.5766 68.5869L69.2337 68.0577L70.3199 67.7931L70.2045 68.4513ZM69.4815 68.6616L69.2473 69.3197L68.5718 69.2213L69.1421 68.1357L69.4815 68.6616ZM69.2473 69.4418L69.4136 69.8693L68.8943 70.2696L68.5718 69.3401L69.2473 69.4418ZM69.3831 69.4622L69.5256 69.4826L69.5867 69.7336L69.5121 69.7913L69.3831 69.4622ZM69.546 69.3672L69.3695 69.3401L69.563 68.7905L69.7497 69.0789L69.546 69.3672ZM70.011 69.5572L69.9364 70.0016L69.6037 69.8693L70.011 69.5572ZM70.0348 70.1339L70.3776 70.0525L70.7849 70.6869L69.916 70.8022L70.0348 70.1339ZM70.4693 69.9779L70.5779 69.642L71.104 69.7201L70.863 70.5885L70.4693 69.9779ZM70.5915 69.5233L70.4862 69.184L70.8528 68.9024L71.0904 69.5979L70.5915 69.5233ZM70.3233 68.4682L70.4387 67.8067L71.3959 68.3291L70.8732 68.7328L70.3233 68.4682ZM70.3403 67.6676L69.1658 67.9491L68.8162 67.4097L70.4557 67.023L70.3403 67.6676ZM69.0674 68.0204L68.4496 69.201L67.842 69.1094L68.7246 67.4878L69.0674 68.0204ZM68.4361 69.3197L68.7959 70.3477L68.2562 70.7649L67.8285 69.2281L68.4361 69.3197ZM68.8739 70.4393L69.7768 70.904L69.6818 71.457L68.3376 70.8531L68.8739 70.4393ZM68.9758 70.3578L69.4951 69.9575L69.9126 70.1203L69.7972 70.7819L68.9758 70.3578ZM69.8956 70.9244L70.8562 70.7988L71.2058 71.345L69.8006 71.4773L69.8956 70.9244ZM70.9513 70.7242L71.2228 69.737L71.9764 69.8524L71.3009 71.2704L70.9513 70.7242ZM71.2228 69.6183L70.9513 68.8244L71.4774 68.4173L71.973 69.7302L71.2228 69.6183ZM70.4591 67.6845L70.5745 67.0332L72.085 67.7931L71.4978 68.2477L70.4591 67.6845ZM70.4761 66.8941L68.7483 67.3012L68.2833 66.5786L70.6288 66.0154L70.4761 66.8941ZM68.6499 67.3724L67.7164 69.0924L67.1021 69.0008C67.1089 68.8821 67.1089 68.7633 67.1123 68.6446L68.1917 66.6566L68.6499 67.3724ZM67.0478 70.005L67.4279 71.4095L66.8271 71.8777C66.9256 71.2535 67.0002 70.6292 67.0478 70.005ZM67.0715 69.642C67.0851 69.469 67.0919 69.2926 67.0987 69.1196L67.6995 69.2112L68.1543 70.8463L67.5298 71.3315L67.0715 69.642ZM68.2324 70.938L69.6614 71.5791L69.5087 72.4442L67.6044 71.4231L68.2324 70.938ZM69.7768 71.5995L71.2805 71.457L71.7422 72.1762L69.6275 72.468L69.7768 71.5995ZM71.379 71.3891L72.0986 69.8693L72.9336 69.9948L71.8372 72.1016L71.379 71.3891ZM72.1087 69.7506L71.5758 68.3393L72.1698 67.8779L72.9302 69.8727L72.1087 69.7506ZM70.5949 66.9076L70.7476 66.0358L72.7028 67.3113L72.1902 67.7117L70.5949 66.9076ZM70.6526 65.8865L68.2154 66.4734L67.1564 64.8314L70.9343 64.2751L70.6526 65.8865ZM68.117 66.5447L67.1157 68.3868C67.119 67.7015 67.0919 67.0196 67.0342 66.3445C67.0036 65.9815 66.9629 65.6219 66.912 65.2623L67.0681 64.9095L68.117 66.5447ZM66.878 65.0418C66.8543 64.8518 66.8237 64.6618 66.7898 64.4752L66.9901 64.7907L66.878 65.0418ZM66.8 72.0507L67.5026 71.5045L69.4883 72.5697L69.2846 73.7232L66.7117 72.5596C66.7423 72.39 66.7728 72.2203 66.8 72.0507ZM69.6037 72.5901L71.8134 72.2848L72.3565 73.1295L69.4068 73.7334L69.6037 72.5901ZM71.9119 72.2169L73.0558 70.0152L74.125 70.1746L72.4516 73.0583L71.9119 72.2169ZM73.066 69.8931L72.2683 67.8033L72.7842 67.3995L74.1148 70.0525L73.066 69.8931ZM70.7714 65.9069L71.0497 64.2954L74.366 66.0222L72.8046 67.2367L70.7714 65.9069ZM70.9547 64.1529L67.0851 64.7195L66.7355 64.1733C66.6981 63.9799 66.6574 63.7865 66.6167 63.5932L71.2941 62.1954L70.9547 64.1529ZM66.688 72.6817L69.2643 73.8453L68.8943 75.9622L66.2161 74.6561C66.4028 74.0014 66.559 73.3432 66.688 72.6817ZM69.3831 73.8589L72.4278 73.2381L73.3205 74.629L69.0165 75.9656L69.3831 73.8589ZM72.5229 73.1702L74.254 70.195L75.3062 70.3511L73.4054 74.5374L72.5229 73.1702ZM74.2608 70.0728L72.8827 67.3249L74.4373 66.1172L75.3164 70.2323L74.2608 70.0728ZM71.0735 64.1699L71.4129 62.209L75.0856 64.6584C75.1569 64.8179 75.2214 64.9807 75.2859 65.1402C75.3028 65.1843 75.3198 65.225 75.3334 65.2691L74.4678 65.9408L71.0735 64.1699ZM75.0007 64.4583L71.4367 62.0801L71.7014 60.5535L74.2031 62.494C74.4237 63.1555 74.7224 63.8069 75.0007 64.4583ZM71.3179 62.0631L66.5895 63.4744C66.4775 62.9825 66.3485 62.494 66.1992 62.0122L71.586 60.5297L71.3179 62.0631ZM61.6304 66.85C61.6677 67.2944 61.6881 67.7422 61.6847 68.1866L60.6901 68.0373L61.5795 66.3649C61.5998 66.5277 61.6168 66.6871 61.6304 66.85ZM61.6847 68.3088C61.6745 69.3028 61.5727 70.2934 61.386 71.267L60.6766 68.1561L61.6847 68.3088ZM66.1822 74.7715L68.8739 76.0844L68.6906 77.1429L65.8971 75.6977C66.0023 75.3889 66.0973 75.0836 66.1822 74.7715ZM68.9927 76.0979L73.3884 74.7341L74.2098 76.0097L68.8094 77.1564L68.9927 76.0979ZM73.4801 74.6561L75.4284 70.3714L77.2003 70.636L74.3015 75.9351L73.4801 74.6561ZM72.9404 59.1252L72.0443 58.6028L72.1732 57.853C72.4176 58.2873 72.6722 58.7113 72.9404 59.1252ZM73.0863 59.3525C73.3341 59.7291 73.5921 60.0989 73.8568 60.4585C73.8297 61.0793 73.9485 61.69 74.1386 62.2972L71.7252 60.4212L72.0205 58.7283L73.0863 59.3525ZM71.6098 60.3974L66.1652 61.8969C66.0193 61.4253 65.8563 60.964 65.673 60.506L71.9017 58.7181L71.6098 60.3974ZM61.5523 66.1647L60.5645 68.017L59.071 67.7931C59.0473 67.6608 59.0133 67.5285 58.9794 67.3961L61.1552 64.2174C61.3351 64.8586 61.4674 65.5133 61.5523 66.1647ZM59.1016 67.9186L60.5476 68.1357L61.3317 71.569C61.1518 72.6037 60.8632 74.4526 60.1233 74.9716C60.052 75.0225 59.9841 75.0734 59.9196 75.1277L59.3901 71.8234C59.4105 71.5554 59.424 71.2908 59.4274 71.0228C59.4444 69.9507 59.3222 68.9228 59.1016 67.9186ZM65.8597 75.813L68.6669 77.265L68.4394 78.5745L65.4185 77.0241C65.578 76.6238 65.724 76.2201 65.8597 75.813ZM68.7857 77.2819L74.2777 76.1183L74.9702 77.1937L68.5583 78.5881L68.7857 77.2819ZM74.3762 76.0471L77.3259 70.6564L79.668 71.0058L75.072 77.1293L74.3762 76.0471ZM77.3394 70.5376L77.2172 70.1034C77.4107 70.1577 77.6144 70.1509 77.8011 70.0593C78.2084 69.8625 78.3544 69.3706 78.5546 68.9669C78.5886 68.8956 78.6293 68.8244 78.6734 68.7565L79.6748 70.8871L77.3394 70.5376ZM71.7591 57.0863C71.8643 57.2899 71.973 57.49 72.0816 57.6868L71.9254 58.5892L65.6289 60.394C65.5169 60.1125 65.3981 59.8377 65.2725 59.5629L71.7591 57.0863ZM47.9986 86.2246C47.0245 86.7368 46.0503 87.2525 45.0286 87.6562C44.163 87.9989 43.2669 88.2601 42.364 88.4772C39.7402 89.1048 37.1469 89.6171 34.6147 90.5874C33.0669 91.1811 33.1721 89.8071 32.9107 88.6468C32.6154 87.3475 32.4186 86.0312 32.1232 84.7319C31.6786 82.7575 31.2441 80.783 30.8334 78.8018C29.7811 73.7096 28.8952 68.5903 28.1213 63.4507C26.9061 55.3799 25.9591 47.2684 25.1512 39.1467C24.3705 36.3784 23.5898 33.6136 22.8057 30.8487C22.7514 30.6621 22.7005 30.4755 22.7005 30.2821C22.6971 30.0718 22.7616 29.8648 22.8227 29.6647C23.023 29.0167 23.2199 28.3653 23.4201 27.7174C23.9768 25.899 26.8009 25.7701 28.4302 25.4512C30.5347 25.0441 32.6765 24.827 34.8218 24.8066C35.5176 24.7998 36.227 24.8134 36.8923 25.0203C37.5203 25.2137 38.0837 25.5733 38.6811 25.8447C42.0008 27.3713 46.0808 26.2823 49.3835 27.8429C51.3183 28.7589 52.7406 30.4789 53.9931 32.2158C54.5905 33.0504 55.1777 33.9223 55.4459 34.9061C55.4594 34.9638 55.4764 35.0215 55.49 35.0825C55.7446 36.1783 55.5714 37.325 55.5409 38.4513C55.49 40.2798 55.8023 42.2136 55.0182 43.8691C54.3936 45.1922 53.1649 46.115 51.9802 46.98C53.4126 44.9038 54.0372 42.3221 53.9218 39.8015C53.8064 37.2809 52.9782 34.8213 51.7358 32.6229C51.4813 32.1751 51.1826 31.7104 50.7073 31.5C50.4358 31.3813 50.1201 31.3575 49.8621 31.2049C49.499 30.9945 49.3021 30.5705 48.9525 30.3364C48.6096 30.1091 48.1785 30.0955 47.778 30.0005C47.0109 29.8173 46.3626 29.3288 45.6701 28.9489C43.3348 27.6665 40.5005 27.6224 37.8733 28.0804C37.0179 28.2296 36.1557 28.4298 35.2834 28.44C34.6079 28.4502 33.8578 28.0804 33.2094 28.2161C32.7003 28.328 32.3269 28.7521 31.9467 29.1117C30.9658 30.0311 30.3208 29.2677 29.2143 29.4984C28.7323 29.5968 28.274 29.9225 27.8192 30.1193C27.2456 30.3635 26.8586 31.059 27.0487 31.6663C27.3576 32.6501 28.3148 32.7111 29.16 32.952C29.3263 32.9995 29.6725 33.0436 29.7947 33.1759C30.0832 33.488 29.9271 33.3591 29.7845 33.7594C29.608 34.2513 29.3874 34.7263 29.3569 35.2555C29.3399 35.5337 29.5571 36.0969 29.4553 36.3445C29.2414 36.867 28.4879 36.6973 28.0772 36.9416C27.5884 37.2368 27.3712 37.8406 27.49 38.3834C27.68 39.2824 28.532 39.7608 28.7968 40.5919C28.8918 40.8871 28.8749 41.2026 28.8545 41.5113C28.8171 42.0813 28.2333 42.3696 28.2028 42.9667C28.1722 43.6045 28.6678 43.9641 29.031 44.4085C29.5809 45.0836 29.2856 45.3822 29.2618 46.1964C29.2448 46.8579 29.6691 47.3227 29.8151 47.9367C29.9509 48.4931 29.8592 49.0868 29.8966 49.6533C30.0154 51.5803 29.9678 53.6158 30.2801 55.5224C30.8979 55.5733 31.5869 55.3222 32.2522 55.3765C32.8734 55.4308 33.4776 55.5936 34.0614 55.804C34.91 56.1059 35.8129 56.2145 36.7056 56.3196C37.062 56.3603 37.4286 56.4044 37.7748 56.3061C38.0532 56.228 38.3044 56.0618 38.5861 56.0041C38.8678 55.9431 39.2242 56.0381 39.3125 56.3128C38.4367 56.686 37.5576 57.0592 36.6819 57.4324C36.1456 57.663 35.6059 57.8904 35.0288 57.9786C34.5434 58.0498 34.0478 58.0193 33.5625 58.1007C33.0805 58.1787 32.5815 58.4026 32.3439 58.8335C31.9433 58.7181 30.1138 57.8666 30.1885 58.6401C30.5007 61.8596 30.7723 65.0859 31.0472 68.3088C31.4613 73.194 31.8924 78.0792 32.5068 82.944C32.6596 84.1586 32.8089 85.3765 33.0058 86.5842C33.1348 87.3916 33.2434 87.2593 34.0377 87.222C34.6181 87.1949 35.1985 87.1677 35.7824 87.1372C38.6744 86.9777 41.5562 86.7572 44.3667 86.0278C45.7821 85.658 47.1704 85.1865 48.518 84.6131C49.1697 84.335 49.8112 84.0364 50.4426 83.7108C50.8839 83.4869 51.8988 83.1476 52.1839 82.7405C51.0502 84.3621 49.7433 85.3018 47.9986 86.2246ZM36.5936 47.9741C36.4001 44.8326 36.2508 41.4977 36.1456 37.922C36.2779 38.3902 36.9772 38.2206 37.1774 37.8711C37.2657 37.7151 37.3064 37.5353 37.3811 37.3691C37.5203 37.057 37.802 36.7143 38.06 36.4938C38.43 36.1749 38.7965 36.2597 39.2752 36.2563C40.1916 36.2529 40.1441 37.2503 40.2459 37.9085C40.3376 38.492 40.7755 38.9093 41.3084 39.123C41.5799 39.2315 41.9261 39.2587 42.2147 39.2824C42.9852 39.3503 42.9241 38.5022 43.1311 37.9831C43.5283 36.9959 44.2716 36.962 45.0625 37.4878C45.6565 37.8813 46.2506 38.0374 46.8819 38.051C47.1195 38.4852 47.2655 38.9669 47.3096 39.486C47.7203 44.2728 42.2113 47.3023 36.5936 47.9741ZM47.8561 67.6811C48.4535 67.9424 49.0848 68.1493 49.7433 68.1459C50.0828 68.1459 50.4188 68.095 50.7447 68.0136C51.0366 68.7023 51.2233 69.5063 51.3047 70.4427C51.7256 75.3211 47.2417 79.3005 40.0117 79.9247L39.0715 80.0061C38.6879 76.634 38.2535 72.6986 37.8733 68.2884L37.7986 67.4199C38.878 67.7286 40.0491 67.7354 41.1251 67.4097C41.5052 67.2944 41.994 67.1689 42.2384 67.4844C42.3912 67.6845 42.3538 67.9627 42.3674 68.2172C42.4183 69.357 43.6742 70.1678 44.8113 70.0661C45.4766 70.005 46.1827 69.6182 46.3218 68.9669C46.4237 68.4818 46.2302 67.8711 46.6138 67.5556C46.9939 67.2401 47.4759 67.5149 47.8561 67.6811ZM54.6142 59.0031C54.397 59.0031 54.1899 59.0743 53.9727 59.1015C53.4669 59.1558 53.097 58.864 52.5776 59.0642C52.2789 59.1795 52.004 59.3559 51.6985 59.4509C50.9687 59.6748 50.188 59.3899 49.4888 59.0811C48.888 58.8131 48.294 58.5248 47.7135 58.2126C46.6782 57.6597 48.002 56.7606 48.6775 56.6792C49.2851 56.608 49.8995 56.8183 50.4188 57.1372C50.687 57.3 50.9483 57.5002 51.2606 57.5341C51.8886 57.6054 52.3774 56.9913 52.9883 56.8183C53.3142 56.7233 53.6638 56.7573 53.9999 56.8149C57.7744 57.4663 60.1131 60.5908 61.1144 64.0681L58.9386 67.2435C58.494 65.5031 57.7846 63.8306 57.0582 62.1446C56.6101 61.0963 56.067 58.9963 54.6142 59.0031ZM57.3637 79.2123C57.1804 79.3548 56.9835 79.409 56.773 79.3344C57.2992 77.9706 58.2598 76.79 58.7248 75.3414C59.0371 74.361 59.2475 73.3432 59.3494 72.3187L59.8144 75.2227C58.8334 76.1217 58.4804 77.5466 57.8015 78.6695C57.6793 78.8697 57.5504 79.0698 57.3637 79.2123ZM68.0457 80.8441L64.4714 79.1207C64.8041 78.4693 65.1028 77.8078 65.3743 77.1361L68.4191 78.7L68.0457 80.8441ZM68.1645 80.8542L68.5379 78.717L75.0381 77.2989L76.294 79.2496L68.1645 80.8542ZM76.389 79.1784L75.1399 77.2344L79.8003 71.0262L81.3142 71.2534L76.389 79.1784ZM79.8173 70.9074L78.7515 68.6412C79.1147 68.1188 79.6782 67.7185 80.2824 67.671L81.3312 71.1347L79.8173 70.9074ZM81.4602 71.1551L80.4045 67.6642C80.503 67.6642 80.6048 67.6743 80.7066 67.6947C81.1072 67.7761 81.4296 68 81.6706 68.3088L82.2477 71.2738L81.4602 71.1551ZM81.8438 68.553C82.1798 69.106 82.3258 69.8354 82.3156 70.4901C82.3122 70.6292 82.3088 70.7683 82.2986 70.9108L81.8438 68.553ZM98.3132 62.5415C97.5393 62.9689 96.8807 63.5694 96.358 64.2818C96.2766 64.3938 96.1917 64.5125 96.0695 64.577C95.8658 64.6856 95.6146 64.6177 95.3906 64.5566C94.1279 64.2106 92.7838 64.1631 91.5007 64.4244C90.9949 64.5261 90.5231 64.6211 90.0513 64.5702C89.8307 64.5465 89.6066 64.4888 89.3792 64.3836C88.5815 64.0104 87.8925 63.6441 86.9828 63.5253C86.7113 63.4914 86.4329 63.4744 86.1749 63.3794C85.9407 63.2912 85.7337 63.142 85.53 62.9961C84.2775 62.0971 83.2015 61.2354 81.6672 60.9165C81.5213 60.8859 81.355 60.8825 81.1819 60.8792L81.786 60.4076L81.7114 60.316L80.9986 60.869C80.7134 60.8486 80.4385 60.7977 80.2688 60.5874C79.9972 60.2549 80.1907 59.7698 80.245 59.3457C80.3876 58.3042 79.6272 57.3815 78.9857 56.5469C76.1888 52.8932 74.9295 48.2488 74.6375 43.6588C74.5425 42.1932 74.5764 40.6293 74.7462 39.1332C74.8887 37.8915 74.9566 35.6898 75.7746 34.689C76.3856 33.9426 77.1867 33.5728 77.6823 32.6603C77.9572 32.148 78.1609 31.5916 78.4766 31.1031C79.3251 29.7936 80.4962 30.4246 81.6265 29.6715C81.7996 29.5527 81.966 29.4102 82.156 29.322C82.3495 29.2338 82.5871 29.2033 82.7704 29.3119C83.0148 29.4543 83.0725 29.7902 83.0318 30.0718C82.9367 30.7435 82.3495 31.232 81.9558 31.7409C81.3923 32.4703 81.5077 33.2302 80.9952 33.9867C78.3815 37.8338 76.7081 42.4171 76.7081 47.0988C76.7081 56.4316 83.4289 64.024 91.6874 64.024C92.9161 64.024 94.1279 63.8205 95.3024 63.471C96.4768 63.1216 97.597 62.4092 98.7578 62.1208C98.6832 62.3345 98.5202 62.4295 98.3132 62.5415ZM92.2169 57.3611C87.6311 57.3611 84.0229 52.6286 84.0229 47.2209C84.0229 42.6376 86.2021 37.6812 88.8327 35.2012C89.3589 34.6754 89.661 33.851 89.661 32.9486C89.661 31.5 88.9821 29.7631 87.7805 28.3586C87.7975 28.3484 87.8144 28.3382 87.8314 28.3314C88.7547 27.9481 89.9461 28.613 90.1022 29.5968C90.1463 29.8614 90.1294 30.16 90.3025 30.3669C90.462 30.5603 90.7302 30.6112 90.9746 30.6519C91.3581 30.713 91.7858 30.7672 92.1049 30.5433C92.6616 30.16 92.4749 29.3186 92.407 28.6435C92.3459 28.0431 92.4443 27.4053 92.8007 26.9201C93.1571 26.4316 93.8055 26.1365 94.3859 26.2993C94.6914 26.3841 94.8883 26.5945 95.0206 26.876C95.1021 27.0524 95.0546 27.3849 95.187 27.541C95.4178 27.8225 95.781 27.5274 96.0627 27.7377C96.5209 28.0838 96.1951 28.9828 96.1781 29.4509C96.1544 30.2007 96.0797 30.9471 96.0763 31.6968C96.0729 32.3516 96.1849 33.1725 96.8095 33.3693C96.9758 33.4202 97.1693 33.4066 97.2983 33.2947C97.3831 33.22 97.4306 33.1149 97.4714 33.0097C97.6377 32.5958 97.7565 32.1616 97.821 31.7205C97.9194 31.042 97.6377 30.1464 98.6967 30.3601C99.2568 30.4721 99.878 30.679 100.122 31.1981C100.306 31.5814 100.228 32.0326 100.082 32.4296C99.9357 32.8265 99.7286 33.1997 99.6438 33.6136C99.5453 34.0885 99.7829 35.856 100.632 35.4252C101.052 35.2148 101.28 34.5465 101.361 34.119C101.531 33.2302 101.416 32.2905 101.541 31.3881C101.582 31.0963 101.562 30.5196 101.853 30.3398C102.274 30.0786 102.627 30.5535 102.98 30.6723C103.035 30.6892 103.082 30.696 103.126 30.6926C104.257 32.8876 104.919 35.5507 104.919 38.5089C104.919 47.7467 98.5304 57.3611 92.2169 57.3611Z" fill="white"/>
</svg>
