<svg width="48" height="48" viewBox="0 0 48 48" fill="none" xmlns="http://www.w3.org/2000/svg">
<path d="M15.6845 21.9615H18.4414C18.8895 21.9615 19.1331 21.411 18.8408 21.0542L17.4282 19.6168C17.2139 19.3518 16.834 19.362 16.6197 19.627L15.2753 21.0644C15.0025 21.4212 15.2461 21.9615 15.6845 21.9615Z" fill="#1E1E1E"/>
<path d="M32.4029 21.9615H29.646C29.2076 21.9615 28.9641 21.4212 29.2368 21.0644L30.5812 19.627C30.7955 19.362 31.1754 19.3518 31.3898 19.6168L32.8023 21.0542C33.0946 21.411 32.851 21.9615 32.4029 21.9615Z" fill="#1E1E1E"/>
<path d="M34.1989 24.5H30.8772C30.4368 25.1362 29.6064 25.9542 28.2601 25.9542C27.1528 25.9542 26.2721 25.1362 25.7436 24.5H22.3338C21.8935 25.1362 21.063 25.9542 19.7167 25.9542C18.6095 25.9542 17.7288 25.1362 17.2003 24.5H13.8912C13.8912 28.7151 17.0493 32.2712 21.3399 33.3391C21.7676 32.7029 22.6107 31.8281 23.9947 31.8281C25.1648 31.8281 26.0833 32.737 26.5866 33.3846C30.9652 32.3621 34.1989 28.7719 34.1989 24.5Z" fill="#1E1E1E"/>
<path d="M26.5835 10.5385V8.77698C26.5835 8.09745 25.5765 7.74098 24.9777 8.21999L22.0561 10.5385H18.8551C16.2233 10.5607 13.6688 11.4313 11.5711 13.0209C9.47342 14.6105 7.94443 16.8344 7.21122 19.3621L5.50665 25.2361C4.95923 27.0839 4.85366 29.0344 5.19847 30.9304C5.54328 32.8264 6.32881 34.6148 7.49172 36.1515C8.60975 37.6591 10.066 38.8831 11.7434 39.7252C13.4208 40.5674 15.2724 41.004 17.1493 41H30.9471C32.8119 41.0045 34.6521 40.5741 36.3215 39.7431C37.9909 38.912 39.4436 37.7031 40.564 36.2124C41.7249 34.6924 42.5153 32.9226 42.8725 31.0437C43.2296 29.1647 43.1437 27.2284 42.6215 25.3884L40.993 19.5106C40.2871 16.9468 38.7639 14.6834 36.6546 13.0641C34.5452 11.4448 31.9651 10.558 29.306 10.5385H26.5835ZM18.8551 13.0769H29.306C31.4098 13.0945 33.4505 13.7981 35.1182 15.0809C36.7858 16.3637 37.9893 18.1556 38.546 20.1846L40.1756 26.0649C40.591 27.528 40.6596 29.0677 40.3761 30.5619C40.0925 32.0561 39.4646 33.4637 38.5422 34.6729C37.658 35.8515 36.5111 36.8076 35.1926 37.4653C33.8742 38.123 32.4205 38.4641 30.9471 38.4615H17.1493C15.6665 38.4638 14.2038 38.118 12.879 37.4521C11.5541 36.7861 10.404 35.8185 9.52122 34.6272C8.59756 33.4051 7.97362 31.9832 7.69961 30.4761C7.4256 28.9689 7.50916 27.4184 7.94357 25.9494L9.64941 20.0754C10.2265 18.0736 11.434 16.3114 13.0924 15.0506C14.7509 13.7897 16.7719 13.0976 18.8551 13.0769Z" fill="#1E1E1E"/>
</svg>
