<svg width="32" height="32" viewBox="0 0 32 32" fill="none" xmlns="http://www.w3.org/2000/svg">
<path d="M21.5143 0.973358C17.5308 -0.478821 13.1295 -0.300234 9.27863 1.46983C5.42775 3.2399 2.44274 6.45645 0.980262 10.4119C-0.281394 13.8242 -0.32079 17.5452 0.836673 20.9577C8.63803 20.2498 15.4718 13.4889 16.1249 5.35554C16.1493 5.05076 16.5397 4.91105 16.7523 5.1322C20.9674 9.51654 25.0417 10.63 30.4252 9.01408C28.624 5.28664 25.4283 2.40022 21.5143 0.973358Z" fill="#D9D9D9"/>
<path d="M21.5143 0.973358C17.5308 -0.478821 13.1295 -0.300234 9.27863 1.46983C5.42775 3.2399 2.44274 6.45645 0.980262 10.4119C-0.281394 13.8242 -0.32079 17.5452 0.836673 20.9577C8.63803 20.2498 15.4718 13.4889 16.1249 5.35554C16.1493 5.05076 16.5397 4.91105 16.7523 5.1322C20.9674 9.51654 25.0417 10.63 30.4252 9.01408C28.624 5.28664 25.4283 2.40022 21.5143 0.973358Z" fill="url(#paint0_linear_10826_13505)"/>
<path d="M10.4857 31.0266C14.4692 32.4788 18.8705 32.3002 22.7214 30.5302C26.5722 28.7601 29.5573 25.5436 31.0197 21.5881C32.2745 18.1946 32.3203 14.4957 31.1823 11.0986C21.8949 12.204 16.7193 19.1386 15.9536 26.7543C15.9229 27.0591 15.5283 27.1879 15.3212 26.9609C11.6305 22.9154 7.19499 21.2317 1.62981 23.0986C3.44066 26.7715 6.61121 29.6142 10.4857 31.0266Z" fill="#D9D9D9"/>
<path d="M10.4857 31.0266C14.4692 32.4788 18.8705 32.3002 22.7214 30.5302C26.5722 28.7601 29.5573 25.5436 31.0197 21.5881C32.2745 18.1946 32.3203 14.4957 31.1823 11.0986C21.8949 12.204 16.7193 19.1386 15.9536 26.7543C15.9229 27.0591 15.5283 27.1879 15.3212 26.9609C11.6305 22.9154 7.19499 21.2317 1.62981 23.0986C3.44066 26.7715 6.61121 29.6142 10.4857 31.0266Z" fill="url(#paint1_linear_10826_13505)"/>
<defs>
<linearGradient id="paint0_linear_10826_13505" x1="0" y1="16" x2="32" y2="16" gradientUnits="userSpaceOnUse">
<stop stop-color="#312D2D"/>
<stop offset="1" stop-color="#5A5A5A"/>
</linearGradient>
<linearGradient id="paint1_linear_10826_13505" x1="0" y1="16" x2="32" y2="16" gradientUnits="userSpaceOnUse">
<stop stop-color="#312D2D"/>
<stop offset="1" stop-color="#5A5A5A"/>
</linearGradient>
</defs>
</svg>
